<?xml version="1.0" encoding="utf-8"?>
<!-- Generator: Adobe Illustrator 24.0.0, SVG Export Plug-In . SVG Version: 6.00 Build 0)  -->
<svg version="1.1" id="图层_1" xmlns="http://www.w3.org/2000/svg" xmlns:xlink="http://www.w3.org/1999/xlink" x="0px" y="0px"
	 viewBox="0 0 24 24" style="enable-background:new 0 0 24 24;" xml:space="preserve">
<style type="text/css">
	.st0{opacity:0.57;fill:#FFFFFF;enable-background:new    ;}
</style>
<polygon class="st0" points="15,6 12,2 9,6 11,6 11,9 13,9 13,6 "/>
<path class="st0" d="M17,3h-2v1h1.4l4.5,8H14v2c0,0.6-0.4,1-1,1h-2c-0.6,0-1-0.4-1-1v-2H3.1l4.5-8H9V3H7l-5,9v7c0,1.1,0.9,2,2,2h16
	c1.1,0,2-0.9,2-2v-7L17,3z"/>
</svg>
