<?xml version="1.0" encoding="utf-8"?>
<!-- Generator: Adobe Illustrator 24.0.0, SVG Export Plug-In . SVG Version: 6.00 Build 0)  -->
<svg version="1.1" id="图层_1" xmlns="http://www.w3.org/2000/svg" xmlns:xlink="http://www.w3.org/1999/xlink" x="0px" y="0px"
	 viewBox="0 0 14 14" style="enable-background:new 0 0 14 14;" xml:space="preserve">
<style type="text/css">
	.st0{opacity:0.5;fill:#FFFFFF;}
</style>
<polygon class="st0" points="10,5 7,1 4,5 6,5 6,8 8,8 8,5 "/>
<path class="st0" d="M10.5,1H9.6v1h0.5L13,6h-3v1.7C10,8.4,9.4,9,8.7,9H5.3C4.6,9,4,8.4,4,7.7V6H1l2.9-4h0.5V1H3.5L0,6v4.4
	C0,11.8,1.2,13,2.6,13h8.8c1.4,0,2.6-1.2,2.6-2.6V6L10.5,1z"/>
</svg>
