<svg xmlns="http://www.w3.org/2000/svg" viewBox="0 0 16 16"><defs><style>.cls-1{opacity:0.74;}.cls-2{fill:#fff;}</style></defs><title>画板 134 副本</title><g id="普通状态-白"><g class="cls-1"><path class="cls-2" d="M6,5H6A.94.94,0,0,1,7,6v6a.94.94,0,0,1-1,1H6a.94.94,0,0,1-1-1V6A.94.94,0,0,1,6,5Z"/><path class="cls-2" d="M10,5h0a.94.94,0,0,1,1,1v6a.94.94,0,0,1-1,1h0a.94.94,0,0,1-1-1V6A.94.94,0,0,1,10,5Z"/><path class="cls-2" d="M16,2H11V1a.94.94,0,0,0-1-1H6A.94.94,0,0,0,5,1V2H0V3H2V14a2,2,0,0,0,2,2h8a2,2,0,0,0,2-2V3h2ZM12,15H4a.94.94,0,0,1-1-1V3H13V14A.94.94,0,0,1,12,15Z"/></g></g></svg>