<svg xmlns="http://www.w3.org/2000/svg" viewBox="0 0 24 24"><defs><style>.cls-1{opacity:0.5;}.cls-2{fill:#fff;}</style></defs><title>画板 149 副本 14</title><g id="点击状态"><g class="cls-1"><path class="cls-2" d="M16,19a1,1,0,0,0,1-1V9a1,1,0,0,0-2,0v9A1,1,0,0,0,16,19Z"/><path class="cls-2" d="M12,19a1,1,0,0,0,1-1V9a1,1,0,0,0-2,0v9A1,1,0,0,0,12,19Z"/><path class="cls-2" d="M8,19a1,1,0,0,0,1-1V9A1,1,0,0,0,7,9v9A1,1,0,0,0,8,19Z"/><path class="cls-2" d="M23,3H17V1.5A1.5,1.5,0,0,0,15.5,0h-7A1.5,1.5,0,0,0,7,1.5V3H1A1,1,0,0,0,1,5H2V21a3,3,0,0,0,3,3H19a3,3,0,0,0,3-3V5h1a1,1,0,0,0,0-2ZM20,21a1,1,0,0,1-1,1H5a1,1,0,0,1-1-1V5H20Z"/></g></g></svg>