<svg xmlns="http://www.w3.org/2000/svg" viewBox="0 0 24 24"><defs><style>.cls-1{opacity:0.97;}.cls-2{fill:#fff;}</style></defs><title>画板 149 副本 4</title><g id="点击状态"><g class="cls-1"><path class="cls-2" d="M22,7.18V3a3,3,0,0,0-3-3H5A3,3,0,0,0,2,3V7.18A3,3,0,0,0,0,10v7a3,3,0,0,0,2,2.82V21a3,3,0,0,0,3,3H19a3,3,0,0,0,3-3V19.82A3,3,0,0,0,24,17V10A3,3,0,0,0,22,7.18ZM4,3A1,1,0,0,1,5,2H19a1,1,0,0,1,1,1V7H4Zm9.6,9A2.13,2.13,0,0,1,13,13.56a3.1,3.1,0,0,1-2.23.63H8.81V17.1h-1V10h2.87a8.5,8.5,0,0,1,1.16.06,2.28,2.28,0,0,1,.93.34,1.65,1.65,0,0,1,.61.69A2,2,0,0,1,13.6,12ZM2.49,16.68A2.13,2.13,0,0,1,2,15.07L2.89,15a1.75,1.75,0,0,0,.32,1.12,1.08,1.08,0,0,0,.81.3,1.23,1.23,0,0,0,.65-.16.88.88,0,0,0,.38-.45,2.73,2.73,0,0,0,.1-.89V10h1v4.87a3.39,3.39,0,0,1-.23,1.39A1.68,1.68,0,0,1,5.2,17,2.6,2.6,0,0,1,4,17.23,2,2,0,0,1,2.49,16.68ZM20,21a1,1,0,0,1-1,1H5a1,1,0,0,1-1-1V20H20Zm1.66-4.89a5.77,5.77,0,0,1-1.53.84,4.93,4.93,0,0,1-1.62.28,4.42,4.42,0,0,1-2-.46,3.05,3.05,0,0,1-1.38-1.3,3.94,3.94,0,0,1-.47-1.91,4.31,4.31,0,0,1,.46-2,3,3,0,0,1,1.34-1.35,4.44,4.44,0,0,1,2-.44,4.39,4.39,0,0,1,1.49.25,2.5,2.5,0,0,1,1,.71A3,3,0,0,1,21.55,12l-.91.23a2.56,2.56,0,0,0-.43-.86,1.71,1.71,0,0,0-.72-.5,2.93,2.93,0,0,0-1-.19,3.26,3.26,0,0,0-1.19.2,2.18,2.18,0,0,0-.81.52,2.35,2.35,0,0,0-.48.71,3.43,3.43,0,0,0-.29,1.44A3.24,3.24,0,0,0,16,15.1a2.16,2.16,0,0,0,1,1,3.27,3.27,0,0,0,1.42.31,3.49,3.49,0,0,0,1.27-.24,3.19,3.19,0,0,0,.95-.5V14H18.44V13h3.22Z"/><path class="cls-2" d="M11.69,10.85a4.81,4.81,0,0,0-.94-.06H8.81v2.56h2A2.26,2.26,0,0,0,12.16,13a1.2,1.2,0,0,0,.41-1,1.23,1.23,0,0,0-.24-.76A1.13,1.13,0,0,0,11.69,10.85Z"/></g></g></svg>