<svg xmlns="http://www.w3.org/2000/svg" viewBox="0 0 24 24"><defs><style>.cls-1{opacity:0.5;}.cls-2{fill:#fff;}</style></defs><title>画板 149 副本 8</title><g id="点击状态"><g class="cls-1"><path class="cls-2" d="M6.85,13a1.2,1.2,0,0,0,.41-1A1.23,1.23,0,0,0,7,11.28a1.13,1.13,0,0,0-.64-.43,4.81,4.81,0,0,0-.94-.06H3.5v2.56h2A2.24,2.24,0,0,0,6.85,13Z"/><path class="cls-2" d="M13.48,10.94a4.05,4.05,0,0,0-1.3-.15h-1.6v5.47H12.2a4.42,4.42,0,0,0,1.18-.13,1.74,1.74,0,0,0,.69-.37,2.33,2.33,0,0,0,.55-.91,4,4,0,0,0,.2-1.38,3.21,3.21,0,0,0-.39-1.73A1.9,1.9,0,0,0,13.48,10.94Z"/><path class="cls-2" d="M22,7.18V3a3,3,0,0,0-3-3H5A3,3,0,0,0,2,3V7.18A3,3,0,0,0,0,10v7a3,3,0,0,0,2,2.82V21a3,3,0,0,0,3,3H19a3,3,0,0,0,3-3V19.82A3,3,0,0,0,24,17V10A3,3,0,0,0,22,7.18ZM4,3A1,1,0,0,1,5,2H19a1,1,0,0,1,1,1V7H4ZM15.86,13.49a4.86,4.86,0,0,1-.2,1.44,3.48,3.48,0,0,1-.52,1,2.63,2.63,0,0,1-.69.65,2.89,2.89,0,0,1-.91.36,5.6,5.6,0,0,1-1.22.12H9.58V10h2.61a6.66,6.66,0,0,1,1.36.1,2.58,2.58,0,0,1,1.11.51,3,3,0,0,1,.9,1.22A4.57,4.57,0,0,1,15.86,13.49ZM3.5,17.1h-1V10H5.36A8.5,8.5,0,0,1,6.52,10a2.39,2.39,0,0,1,.94.34,1.7,1.7,0,0,1,.6.69,2,2,0,0,1,.23,1,2.13,2.13,0,0,1-.61,1.54,3.1,3.1,0,0,1-2.23.63H3.5ZM20,21a1,1,0,0,1-1,1H5a1,1,0,0,1-1-1V20H20Zm2.42-10.21H18.3V13h3.57v.84H18.3V17.1h-1V10h5.12Z"/></g></g></svg>