<svg xmlns="http://www.w3.org/2000/svg" viewBox="0 0 24 24"><defs><style>.cls-1{opacity:0.5;}.cls-2{fill:#fff;}</style></defs><title>画板 149 副本 11</title><g id="点击状态"><g class="cls-1"><rect class="cls-2" x="16" y="13" width="2" height="2"/><rect class="cls-2" x="11" y="13" width="2" height="2"/><rect class="cls-2" x="6" y="13" width="2" height="2"/><rect class="cls-2" x="16" y="17" width="2" height="2"/><rect class="cls-2" x="11" y="17" width="2" height="2"/><rect class="cls-2" x="6" y="17" width="2" height="2"/><path class="cls-2" d="M21,2H18V0H16V2H8V0H6V2H3A3,3,0,0,0,0,5V21a3,3,0,0,0,3,3H21a3,3,0,0,0,3-3V5A3,3,0,0,0,21,2Zm1,19a1,1,0,0,1-1,1H3a1,1,0,0,1-1-1V10H22ZM2,8V5A1,1,0,0,1,3,4H6V6H8V4h8V6h2V4h3a1,1,0,0,1,1,1V8Z"/></g></g></svg>