<svg id="icon-bluetooth-open" xmlns="http://www.w3.org/2000/svg" width="24" height="24" viewBox="0 0 24 24">
  <defs>
    <style>
      .cls-1 {
        fill: #515151;
      }

      .cls-1, .cls-2 {
        opacity: 0;
      }

      .cls-2, .cls-3 {
        fill: #fff;
      }
    </style>
  </defs>
  <rect id="icon_bluetooth_background" data-name="icon/bluetooth background" class="cls-1" width="24" height="24"/>
  <g id="bluetooth" transform="translate(0 0)">
    <rect id="矩形" class="cls-2" width="24" height="24"/>
    <path id="形状" class="cls-3" d="M8.4,24a1.23,1.23,0,0,1-1.246-1.064L7.145,22.8l0-5.879a.515.515,0,0,1,.251-.436L9.35,15.359a.212.212,0,0,1,.1-.027.2.2,0,0,1,.2.2v4.742a.2.2,0,0,0,.3.172l4.293-2.576a.2.2,0,0,0,.1-.166.193.193,0,0,0-.086-.168l-5.481-3.83a.184.184,0,0,0-.114-.037.211.211,0,0,0-.11.031L.312,19.164A.19.19,0,0,1,.2,19.2a.206.206,0,0,1-.141-.057A.2.2,0,0,1,0,19V16.715A.511.511,0,0,1,.223,16.3l6.059-4.016a.2.2,0,0,0,.088-.168.2.2,0,0,0-.083-.162L.214,7.7A.5.5,0,0,1,0,7.289V4.959A.2.2,0,0,1,.315,4.8L6.827,9.357a.19.19,0,0,0,.113.035.2.2,0,0,0,.2-.2v-8A1.23,1.23,0,0,1,8.4,0,1.279,1.279,0,0,1,9,.148l.119.07,8.348,5.6A1.182,1.182,0,0,1,18,6.732a1.163,1.163,0,0,1-.408.957l-.128.1-6.613,4.385,6.64,4.648a1.175,1.175,0,0,1,.058,1.9l-.133.088L9.063,23.813A1.277,1.277,0,0,1,8.4,24ZM9.85,3.682a.2.2,0,0,0-.2.2V9.676a.2.2,0,0,0,.2.2.22.22,0,0,0,.11-.035L14.3,6.959a.191.191,0,0,0,.09-.162.2.2,0,0,0-.09-.168L9.962,3.719A.187.187,0,0,0,9.85,3.682Z" transform="translate(3)"/>
  </g>
</svg>
