<svg id="icon-powersavingmode-open" xmlns="http://www.w3.org/2000/svg" width="24" height="24" viewBox="0 0 24 24">
  <defs>
    <style>
      .cls-1 {
        opacity: 0;
      }

      .cls-2 {
        fill: #fff;
      }
    </style>
  </defs>
  <g id="节能">
    <rect id="矩形" class="cls-1" width="24" height="24"/>
    <path id="路径" class="cls-2" d="M22.657.246l.464.07a1.042,1.042,0,0,1,.81,1.4q-2.205,5.754-5.653,7.745a4.729,4.729,0,0,1-5.322-.3l.061-.145a11.255,11.255,0,0,1,2.453-3.5h0c.114-.073-.067-.379-.186-.314L14.5,5.63a8.929,8.929,0,0,0-2.4,9.422c.3,1.673-1.255,1.639-1.7.409a13.99,13.99,0,0,1-.37-4.6A7.681,7.681,0,0,0,7.767,6.481l-.634-.352c-.088-.049-.24.2-.155.258h0a9.506,9.506,0,0,1,1.84,2.534l.167.365.05.12a3.827,3.827,0,0,1-4.353.253Q1.86,8.009.057,3.24a.873.873,0,0,1-.046-.174.864.864,0,0,1,.6-.965l.1-.024L1.1,2.02q4.707-.68,7.419.906a4.021,4.021,0,0,1,1.8,4.741,6.287,6.287,0,0,1,.381.646,7.462,7.462,0,0,1,.69-1.253,4.821,4.821,0,0,1,2.2-5.72Q16.9-.574,22.657.246Z" transform="translate(0 5)"/>
  </g>
</svg>
