<svg id="icon-powersavingmode-s" xmlns="http://www.w3.org/2000/svg" width="16" height="16" viewBox="0 0 16 16">
  <defs>
    <style>
      .cls-1 {
        opacity: 0;
      }

      .cls-2 {
        fill: #262626;
      }
    </style>
  </defs>
  <g id="节能">
    <rect id="矩形" class="cls-1" width="16" height="16"/>
    <path id="路径" class="cls-2" d="M15.1.164l.309.047a.695.695,0,0,1,.54.935q-1.47,3.836-3.769,5.163a3.152,3.152,0,0,1-3.548-.2l.041-.1a7.5,7.5,0,0,1,1.635-2.332h0c.076-.049-.045-.253-.124-.209l-.519.285a5.953,5.953,0,0,0-1.6,6.281c.2,1.115-.836,1.093-1.13.272a9.327,9.327,0,0,1-.247-3.064A5.121,5.121,0,0,0,5.178,4.321l-.422-.235c-.059-.033-.16.136-.1.172h0A6.337,6.337,0,0,1,5.878,5.947l.111.243.033.08a2.551,2.551,0,0,1-2.9.168A7.987,7.987,0,0,1,.038,2.16a.582.582,0,0,1-.031-.116A.576.576,0,0,1,.41,1.4l.07-.016.253-.039a7.588,7.588,0,0,1,4.946.6,2.68,2.68,0,0,1,1.2,3.161,4.192,4.192,0,0,1,.254.431,4.975,4.975,0,0,1,.46-.835A3.214,3.214,0,0,1,9.058.893,9.386,9.386,0,0,1,15.1.164Z" transform="translate(0 3.333)"/>
  </g>
</svg>
