<svg id="icon-light-100" xmlns="http://www.w3.org/2000/svg" width="24" height="24" viewBox="0 0 24 24">
  <defs>
    <style>
      .cls-1 {
        fill: rgba(198,198,198,0);
      }

      .cls-2 {
        fill: none;
      }

      .cls-3 {
        fill: #9c9c9c;
      }
    </style>
  </defs>
  <rect id="矩形" class="cls-1" width="24" height="24"/>
  <g id="路径">
    <path id="路径_60" data-name="路径 60" class="cls-2" d="M5,12a7,7,0,1,0,7-7A7,7,0,0,0,5,12Z"/>
    <path id="路径_61" data-name="路径 61" class="cls-3" d="M12,7a5,5,0,1,0,5,5,5.007,5.007,0,0,0-5-5m0-2a7,7,0,1,1-7,7A7.007,7.007,0,0,1,12,5Z"/>
  </g>
  <path id="形状结合" class="cls-3" d="M11.5,23a.5.5,0,0,1-.5-.5v-2a.5.5,0,0,1,.5-.5H12a.5.5,0,0,1,.5.5v2a.5.5,0,0,1-.5.5ZM5.99,19.425l-.354-.354a.5.5,0,0,1,0-.707l.354-.353a.5.5,0,0,1,.707,0l.353.353a.5.5,0,0,1,0,.707l-.353.354A.5.5,0,0,1,5.99,19.425Zm12.02-.707-.353-.353a.5.5,0,0,1,0-.707l.353-.354a.5.5,0,0,1,.707,0l.354.354a.5.5,0,0,1,0,.707l-.354.353A.5.5,0,0,1,18.01,18.718ZM20.5,12a.5.5,0,0,1-.5-.5V11a.5.5,0,0,1,.5-.5h2a.5.5,0,0,1,.5.5v.5a.5.5,0,0,1-.5.5Zm-19,0a.5.5,0,0,1-.5-.5V11a.5.5,0,0,1,.5-.5h2A.5.5,0,0,1,4,11v.5a.5.5,0,0,1-.5.5ZM17.3,5.283l-.355-.355a.5.5,0,0,1,0-.707l.354-.354a.5.5,0,0,1,.706,0l.354.354a.5.5,0,0,1,0,.707l-.353.354a.5.5,0,0,1-.707,0Zm-11.314,0-.354-.354a.5.5,0,0,1,0-.707l.354-.354a.5.5,0,0,1,.707,0l.353.354a.5.5,0,0,1,0,.707L6.7,5.283a.5.5,0,0,1-.707,0ZM11.5,4a.5.5,0,0,1-.5-.5v-2a.5.5,0,0,1,.5-.5H12a.5.5,0,0,1,.5.5v2A.5.5,0,0,1,12,4Z"/>
</svg>
