<svg id="icon-hotspot-s" xmlns="http://www.w3.org/2000/svg" width="16" height="16" viewBox="0 0 16 16">
  <defs>
    <style>
      .cls-1 {
        fill: none;
      }

      .cls-2 {
        fill: #262626;
        isolation: isolate;
      }
    </style>
  </defs>
  <rect id="icon_热点_background" data-name="icon/热点 background" class="cls-1" width="16" height="16"/>
  <path id="路径_30" data-name="路径 30" class="cls-2" d="M12.163,14.355A6.661,6.661,0,0,0,15.2,8.824,6.5,6.5,0,0,0,8.774,2.3a6.537,6.537,0,0,0-3.438,12.06l-.7,1.1A7.909,7.909,0,0,1,1,8.824,7.785,7.785,0,0,1,8.724,1,7.836,7.836,0,0,1,12.81,15.452Zm-1.644-2.89a3.283,3.283,0,0,0,1.4-2.641,3.19,3.19,0,1,0-6.379,0,3.283,3.283,0,0,0,1.4,2.641l-.648,1.146A4.591,4.591,0,0,1,4.239,8.824a4.485,4.485,0,1,1,6.927,3.787Zm-1.794-1.4A1.246,1.246,0,1,1,9.97,8.824,1.266,1.266,0,0,1,8.724,10.07Z" transform="translate(-1 -1)"/>
</svg>
