<svg id="icon-DND-s" xmlns="http://www.w3.org/2000/svg" width="16" height="16" viewBox="0 0 16 16">
  <defs>
    <style>
      .cls-1 {
        fill: #515151;
      }

      .cls-1, .cls-2 {
        opacity: 0;
      }

      .cls-2 {
        fill: #9c9c9c;
      }

      .cls-3 {
        fill: #262626;
      }
    </style>
  </defs>
  <rect id="icon_勿扰模式-关闭_background" data-name="icon/勿扰模式-关闭 background" class="cls-1" width="16" height="16"/>
  <g id="icon-勿扰模式">
    <rect id="矩形" class="cls-2" width="16" height="16" rx="1"/>
    <path id="形状结合" class="cls-3" d="M3.886,12.631a.614.614,0,0,1-.4-.146l-.056-.054L2.039,10.913H0L10.874.04,10.808,0a1.119,1.119,0,0,1,.466.465,1.629,1.629,0,0,1,.163.828V9.335a1.8,1.8,0,0,1-.164.948,1.12,1.12,0,0,1-.466.466,1.624,1.624,0,0,1-.827.163H6.428l-.164,0a1.445,1.445,0,0,0-.305.04,1.078,1.078,0,0,0-.348.154,1.827,1.827,0,0,0-.35.316l-.922,1c-.012.013-.025.026-.038.038A.613.613,0,0,1,3.886,12.631Zm3.468-8.1a.616.616,0,0,0-.611.544l0,.072v.783a.615.615,0,0,0,.544.611l.072,0h.783a.615.615,0,0,0,.611-.544l0-.072V5.15a.616.616,0,0,0-.616-.616Z" transform="translate(3.895 2.164)"/>
    <path id="形状" class="cls-3" d="M1.589,11.077H1.575a1.771,1.771,0,0,1-.945-.164,1.116,1.116,0,0,1-.465-.466A1.621,1.621,0,0,1,0,9.618V1.577A1.783,1.783,0,0,1,.164.629,1.12,1.12,0,0,1,.63.163,1.588,1.588,0,0,1,1.455,0l.12,0H12.666ZM3.3,4.7a.617.617,0,0,0-.611.542l0,.073V6.1a.615.615,0,0,0,.544.612l.07.007h.785A.615.615,0,0,0,4.7,6.171l0-.074V5.315A.615.615,0,0,0,4.083,4.7Z" transform="translate(0.565 2)"/>
    <rect id="矩形-2" data-name="矩形" class="cls-3" width="1.231" height="18.667" rx="0.5" transform="translate(13.447 0.299) rotate(45)"/>
  </g>
</svg>
