<svg id="icon-DND-open" xmlns="http://www.w3.org/2000/svg" width="24" height="24" viewBox="0 0 24 24">
  <defs>
    <style>
      .cls-1 {
        fill: #515151;
      }

      .cls-1, .cls-2 {
        opacity: 0;
      }

      .cls-2, .cls-3 {
        fill: #fff;
      }
    </style>
  </defs>
  <rect id="icon_勿扰模式-关闭_background" data-name="icon/勿扰模式-关闭 background" class="cls-1" width="24" height="24"/>
  <g id="icon-勿扰模式">
    <rect id="矩形" class="cls-2" width="24" height="24" rx="1"/>
    <path id="形状结合" class="cls-3" d="M5.829,18.947a.922.922,0,0,1-.6-.219l-.084-.081L3.059,16.369H0L16.311.059,16.213,0a1.679,1.679,0,0,1,.7.7,2.443,2.443,0,0,1,.245,1.242l0,.181V14a2.693,2.693,0,0,1-.247,1.422,1.679,1.679,0,0,1-.7.7,2.436,2.436,0,0,1-1.241.245l-.181,0H9.643l-.246.006a2.168,2.168,0,0,0-.458.059,1.617,1.617,0,0,0-.522.23,2.74,2.74,0,0,0-.525.474L6.509,18.647c-.018.02-.037.039-.057.057A.919.919,0,0,1,5.829,18.947ZM11.031,6.8a.924.924,0,0,0-.917.815l-.006.108V8.9a.922.922,0,0,0,.815.917l.108.006h1.174a.922.922,0,0,0,.917-.815l.006-.108V7.726a.924.924,0,0,0-.923-.923Z" transform="translate(5.843 3.247)"/>
    <path id="形状" class="cls-3" d="M2.386,16.615h0v0l-.021,0a2.656,2.656,0,0,1-1.418-.246,1.673,1.673,0,0,1-.7-.7A2.431,2.431,0,0,1,0,14.428V2.365A2.675,2.675,0,0,1,.248.943a1.679,1.679,0,0,1,.7-.7A2.381,2.381,0,0,1,2.185,0l.18,0H19ZM4.95,7.051a.926.926,0,0,0-.917.813l0,.109V9.145a.923.923,0,0,0,.816.918l.105.01H6.127a.922.922,0,0,0,.918-.816l0-.111V7.973a.923.923,0,0,0-.923-.922Z" transform="translate(0.846 3)"/>
    <rect id="矩形-2" data-name="矩形" class="cls-3" width="1.846" height="28" rx="0.5" transform="translate(20.17 0.448) rotate(45)"/>
  </g>
</svg>
