<svg id="icon-tablet_mode" data-name="icon-tablet mode" xmlns="http://www.w3.org/2000/svg" width="24" height="24" viewBox="0 0 24 24">
  <defs>
    <style>
      .cls-1 {
        fill: #d8d8d8;
        opacity: 0;
      }

      .cls-2 {
        fill: #9c9c9c;
      }
    </style>
  </defs>
  <g id="icon_平板模式" data-name="icon/平板模式">
    <rect id="矩形" class="cls-1" width="24" height="24" rx="1"/>
    <path id="路径" class="cls-2" d="M2.368,0,19.436,0a2.9,2.9,0,0,1,1.541.267,1.817,1.817,0,0,1,.756.756A2.9,2.9,0,0,1,22,2.564V8.3l-.472-.7a3.641,3.641,0,0,0-.328-.415A3.59,3.59,0,0,0,20,6.33V2.564c0-.227-.007-.389-.018-.5l-.005-.044-.043,0C19.847,2.009,19.726,2,19.565,2H2.435l-.212.006-.157.011h0l-.044,0,0,.044C2.009,2.153,2,2.274,2,2.435V12.565l.006.212.011.157h0l0,.043.044.005.157.011c.061,0,.132,0,.212.006H12.9l.12.116-1.027.524A2.09,2.09,0,0,0,10.917,15H2.564a2.9,2.9,0,0,1-1.541-.267,1.817,1.817,0,0,1-.756-.756A2.624,2.624,0,0,1,0,12.632L0,2.564A2.9,2.9,0,0,1,.267,1.023,1.817,1.817,0,0,1,1.023.267,2.624,2.624,0,0,1,2.368,0Z" transform="translate(1 5)"/>
    <path id="路径-2" data-name="路径" class="cls-2" d="M8.613,9.431a10.013,10.013,0,0,0-5.146.37.5.5,0,0,1-.584-.263L2.85,9.449h0l-.108-.4a1.136,1.136,0,0,1,.592-1.311l.842-.418a1,1,0,0,0,.236-1.628L.341,1.9A1.069,1.069,0,0,1,.286.391L.333.344h0A1.251,1.251,0,0,1,2.016.307l2.8,2.433a1,1,0,0,0,1.325-.01l1.6-1.438a2.7,2.7,0,0,1,4.008.454l.878,1.246a3,3,0,0,1-.2,3.707L10.361,9.048a1.509,1.509,0,0,1-1.607.437l-.141-.055Z" transform="translate(10.241 11.862)"/>
  </g>
</svg>
