<svg id="icon-calculator-s" xmlns="http://www.w3.org/2000/svg" width="16" height="16" viewBox="0 0 16 16">
  <defs>
    <style>
      .cls-1 {
        fill: none;
      }

      .cls-2 {
        fill: #262626;
      }
    </style>
  </defs>
  <g id="icon_计算器-s" data-name="icon/计算器-s">
    <rect id="icon_计算器_background" data-name="icon 计算器 background" class="cls-1" width="16" height="16" transform="translate(0 0)"/>
    <path id="路径_52" data-name="路径 52" class="cls-2" d="M13.342,0H2.658A1.585,1.585,0,0,0,1,1.5v13A1.585,1.585,0,0,0,2.658,16H13.342A1.585,1.585,0,0,0,15,14.5V1.5A1.585,1.585,0,0,0,13.342,0ZM4,14a1,1,0,1,1,1-1A1,1,0,0,1,4,14Zm0-4A1,1,0,1,1,5,9,1,1,0,0,1,4,10Zm4,4a1,1,0,1,1,1-1A1,1,0,0,1,8,14Zm0-4A1,1,0,1,1,9,9,1,1,0,0,1,8,10Zm4,4a1,1,0,1,1,1-1A1,1,0,0,1,12,14Zm0-4a1,1,0,1,1,1-1A1,1,0,0,1,12,10Zm.156-4H3.844A.8.8,0,0,1,3,5.25V3.75A.8.8,0,0,1,3.844,3h8.312A.8.8,0,0,1,13,3.75v1.5A.8.8,0,0,1,12.156,6Z"/>
  </g>
</svg>
