<svg id="icon-sound-low-focus" xmlns="http://www.w3.org/2000/svg" width="24" height="24" viewBox="0 0 24 24">
  <defs>
    <style>
      .cls-1 {
        fill: #f6f6f6;
        opacity: 0;
      }

      .cls-2, .cls-3 {
        fill: #2092f2;
      }

      .cls-3 {
        opacity: 0.1;
      }
    </style>
  </defs>
  <rect id="矩形" class="cls-1" width="24" height="24"/>
  <path id="矩形-2" data-name="矩形" class="cls-2" d="M3.074,5.692a1,1,0,0,0,.677-.264L7.967,1.545a1,1,0,0,1,1.677.736V17.009a1,1,0,0,1-1.677.736L3.752,13.863a1,1,0,0,0-.677-.264H1a1,1,0,0,1-1-1V6.692a1,1,0,0,1,1-1Z" transform="translate(1.917 2.56)"/>
  <path id="路径" class="cls-3" d="M0,0A5.127,5.127,0,0,1,5.127,5.127,5.127,5.127,0,0,1,.188,10.25l-.188,0V8.573A3.446,3.446,0,0,0,3.446,5.127,3.446,3.446,0,0,0,.172,1.685L0,1.681Z" transform="translate(13.508 7.078)"/>
  <path id="路径备份_3" data-name="路径备份 3" class="cls-2" d="M0,0A1.912,1.912,0,0,1,1.912,1.912,1.912,1.912,0,0,1,.131,3.819L0,3.824Z" transform="translate(13.508 10.293)"/>
  <path id="路径备份_2" data-name="路径备份 2" class="cls-3" d="M0,0A8.342,8.342,0,0,1,8.342,8.342,8.342,8.342,0,0,1,.233,16.681l-.233,0V15A6.661,6.661,0,0,0,6.661,8.342,6.661,6.661,0,0,0,.207,1.684L0,1.681Z" transform="translate(13.508 3.862)"/>
</svg>
