<svg id="icon-light-s" xmlns="http://www.w3.org/2000/svg" width="16" height="16" viewBox="0 0 16 16">
  <defs>
    <style>
      .cls-1 {
        fill: #c6c6c6;
        opacity: 0;
      }

      .cls-2 {
        fill: none;
        stroke-miterlimit: 10;
      }

      .cls-3, .cls-5 {
        fill: #262626;
      }

      .cls-4, .cls-5 {
        stroke: none;
      }
    </style>
  </defs>
  <rect id="矩形" class="cls-1" width="16" height="16"/>
  <g id="icon-亮度" transform="translate(-1 -1)">
    <g id="路径" class="cls-2" transform="translate(4 4)">
      <path class="cls-4" d="M0,5A5,5,0,1,0,5,0,5.006,5.006,0,0,0,0,5Z"/>
      <path class="cls-5" d="M 5.000919818878174 1 C 2.794809818267822 1 1 2.794390201568604 1 5 C 1 7.205610275268555 2.794809818267822 9 5.000919818878174 9 C 7.206020355224609 9 9 7.205610275268555 9 5 C 9 2.794390201568604 7.206020355224609 1 5.000919818878174 1 M 5.000919818878174 0 C 7.757060050964355 0 10 2.242519855499268 10 5 C 10 7.75747013092041 7.758910179138184 10 5.000919818878174 10 C 2.242939949035645 10 0 7.75747013092041 0 5 C 0 2.242519855499268 2.242939949035645 0 5.000919818878174 0 Z"/>
    </g>
    <path id="路径-2" data-name="路径" class="cls-3" d="M0,0A3,3,0,0,1,3,3,3,3,0,0,1,.15,6L0,6Z" transform="translate(9 6)"/>
    <path id="形状结合" class="cls-3" d="M7.772,16a.5.5,0,0,1-.5-.5V14.318a.5.5,0,0,1,.5-.5h.091a.5.5,0,0,1,.5.5V15.5a.5.5,0,0,1-.5.5Zm-4.24-2.7-.065-.065a.5.5,0,0,1,0-.707l.065-.064a.5.5,0,0,1,.707,0l.065.065a.5.5,0,0,1,0,.707l-.065.065a.5.5,0,0,1-.707,0Zm8.742-.514-.064-.064a.5.5,0,0,1,0-.708l.064-.064a.5.5,0,0,1,.707,0l.064.064a.5.5,0,0,1,0,.707l-.064.064a.5.5,0,0,1-.707,0ZM14.318,8a.5.5,0,0,1-.5-.5V7.409a.5.5,0,0,1,.5-.5H15.5a.5.5,0,0,1,.5.5V7.5a.5.5,0,0,1-.5.5ZM.5,8A.5.5,0,0,1,0,7.5V7.409a.5.5,0,0,1,.5-.5H1.682a.5.5,0,0,1,.5.5V7.5a.5.5,0,0,1-.5.5ZM11.76,3.018,11.7,2.954a.5.5,0,0,1,0-.706l.064-.064a.5.5,0,0,1,.707,0l.064.064a.5.5,0,0,1,0,.708l-.064.064a.5.5,0,0,1-.707,0Zm-8.228,0-.065-.064a.5.5,0,0,1,0-.708l.065-.064a.5.5,0,0,1,.707,0l.065.064a.5.5,0,0,1,0,.706l-.065.064a.5.5,0,0,1-.707,0Zm4.24-.837a.5.5,0,0,1-.5-.5V.5a.5.5,0,0,1,.5-.5h.091a.5.5,0,0,1,.5.5V1.682a.5.5,0,0,1-.5.5Z" transform="translate(1 1)"/>
  </g>
</svg>
