<svg id="icon-hotspot-open" xmlns="http://www.w3.org/2000/svg" width="24" height="24" viewBox="0 0 24 24">
  <defs>
    <style>
      .cls-1 {
        fill: none;
      }

      .cls-2 {
        fill: #fff;
        isolation: isolate;
      }
    </style>
  </defs>
  <rect id="icon_热点_background" data-name="icon/热点 background" class="cls-1" width="24" height="24"/>
  <path id="路径_30" data-name="路径 30" class="cls-2" d="M18.342,21.748a10.349,10.349,0,0,0,4.723-8.594A10.1,10.1,0,0,0,13.077,3.013,10.156,10.156,0,0,0,7.735,21.748l-1.084,1.7A12.287,12.287,0,0,1,1,13.155,12.094,12.094,0,0,1,13,1a12.174,12.174,0,0,1,6.348,22.452Zm-2.555-4.49a5.1,5.1,0,0,0,2.168-4.1,4.955,4.955,0,1,0-9.91,0,5.1,5.1,0,0,0,2.168,4.1L9.206,19.039a7.133,7.133,0,0,1-3.174-5.884,6.968,6.968,0,1,1,10.761,5.884ZM13,15.09a1.935,1.935,0,1,1,1.935-1.935A1.966,1.966,0,0,1,13,15.09Z" transform="translate(-1 -1)"/>
</svg>
