<svg id="icon-tabletmode-s" xmlns="http://www.w3.org/2000/svg" width="16" height="16" viewBox="0 0 16 16">
  <defs>
    <style>
      .cls-1 {
        fill: rgba(216,216,216,0);
      }

      .cls-2 {
        fill: #262626;
      }
    </style>
  </defs>
  <rect id="矩形" class="cls-1" width="16" height="16" rx="1"/>
  <path id="路径-2" class="cls-2" d="M12.569,14.195a6.669,6.669,0,0,0-3.431.247.333.333,0,0,1-.389-.175l-.022-.059h0l-.072-.27a.757.757,0,0,1,.394-.874l.561-.279A.667.667,0,0,0,9.767,11.7L7.054,9.176a.713.713,0,0,1-.036-1.007l.031-.032h0a.834.834,0,0,1,1.122-.029l1.864,1.627a.666.666,0,0,0,.883-.007l1.068-.959a1.8,1.8,0,0,1,2.542.137,1.857,1.857,0,0,1,.13.163l.585.831a2,2,0,0,1-.133,2.471L13.734,13.94a1.007,1.007,0,0,1-1.071.292l-.094-.036Z"/>
  <path id="路径_43" data-name="路径 43" class="cls-2" d="M7.861,12.909H2.5A1.574,1.574,0,0,1,1,11.273V4.727A1.574,1.574,0,0,1,2.5,3.091h11A1.574,1.574,0,0,1,15,4.727V7.992a2.757,2.757,0,0,1,.272.246,2.492,2.492,0,0,1,.207.261l.521.74V4.727A2.624,2.624,0,0,0,13.5,2H2.5A2.625,2.625,0,0,0,0,4.727v6.546A2.624,2.624,0,0,0,2.5,14H7.672A1.729,1.729,0,0,1,7.861,12.909Z"/>
</svg>
