<svg id="icon-setting" xmlns="http://www.w3.org/2000/svg" width="16" height="16" viewBox="0 0 16 16">
  <defs>
    <style>
      .cls-1 {
        fill: #9c9c9c;
        opacity: 0;
      }

      .cls-2, .cls-5 {
        fill: #262626;
      }

      .cls-3 {
        fill: none;
        stroke-miterlimit: 10;
      }

      .cls-4, .cls-5 {
        stroke: none;
      }
    </style>
  </defs>
  <rect id="矩形_25" data-name="矩形 25" class="cls-1" width="16" height="16"/>
  <g id="组_20" data-name="组 20">
    <path id="路径_24" data-name="路径 24" class="cls-2" d="M13.833,6.927a4.527,4.527,0,0,0-.933-2.24l.933-.84-1.54-1.54-1.026.933a6.49,6.49,0,0,0-2.24-.933V1h-2.1V2.167a5.757,5.757,0,0,0-2.24,1.026L3.8,2.26,2.26,3.8l.933.933a6.49,6.49,0,0,0-.933,2.24H1V9.167H2.167a4.527,4.527,0,0,0,.933,2.24l-.933.84,1.54,1.54,1.026-.934a6.471,6.471,0,0,0,2.24.934V15H9.167V13.833a4.527,4.527,0,0,0,2.24-.933l.84.933,1.54-1.54-.934-1.026a6.471,6.471,0,0,0,.934-2.24H15v-2.1ZM8,12.667A4.667,4.667,0,1,1,12.667,8,4.681,4.681,0,0,1,8,12.667Z"/>
    <g id="路径_25" data-name="路径 25" class="cls-3">
      <path class="cls-4" d="M8,5a3,3,0,1,0,3,3A2.993,2.993,0,0,0,8,5Z"/>
      <path class="cls-5" d="M 8 6 C 6.897199630737305 6 6 6.897199630737305 6 8 C 6 9.102800369262695 6.897199630737305 10 8 10 C 9.102800369262695 10 10 9.102800369262695 10 8 C 10 6.897199630737305 9.102800369262695 6 8 6 M 8 5 C 9.66200065612793 5 11 6.338000297546387 11 8 C 11 9.66200065612793 9.66200065612793 11 8 11 C 6.338000297546387 11 5 9.66200065612793 5 8 C 5 6.338000297546387 6.338000297546387 5 8 5 Z"/>
    </g>
  </g>
</svg>
