<svg id="icon-light-focus" xmlns="http://www.w3.org/2000/svg" width="24" height="24" viewBox="0 0 24 24">
  <defs>
    <style>
      .cls-1 {
        fill: #c6c6c6;
        opacity: 0;
      }

      .cls-2 {
        fill: none;
        stroke-miterlimit: 10;
      }

      .cls-3, .cls-5 {
        fill: #2092f2;
      }

      .cls-4, .cls-5 {
        stroke: none;
      }
    </style>
  </defs>
  <rect id="矩形" class="cls-1" width="24" height="24"/>
  <g id="路径" class="cls-2" transform="translate(5 5)">
    <path class="cls-4" d="M0,7A7,7,0,1,0,7,0,7.008,7.008,0,0,0,0,7Z"/>
    <path class="cls-5" d="M 7.001289844512939 2 C 4.243570327758789 2 2 4.242989540100098 2 7 C 2 9.757009506225586 4.243570327758789 12 7.001289844512939 12 C 9.757589340209961 12 12 9.757009506225586 12 7 C 12 4.242989540100098 9.757589340209961 2 7.001289844512939 2 M 7.001289844512939 0 C 10.85988998413086 0 14 3.139530181884766 14 7 C 14 10.86046028137207 10.86246967315674 14 7.001289844512939 14 C 3.140110015869141 14 0 10.86046028137207 0 7 C 0 3.139530181884766 3.140110015869141 0 7.001289844512939 0 Z"/>
  </g>
  <path id="路径-2" data-name="路径" class="cls-3" d="M0,0A4,4,0,0,1,4,4,4,4,0,0,1,.2,8L0,8Z" transform="translate(12 8)"/>
  <path id="形状结合" class="cls-3" d="M10.5,22a.5.5,0,0,1-.5-.5v-2a.5.5,0,0,1,.5-.5H11a.5.5,0,0,1,.5.5v2a.5.5,0,0,1-.5.5ZM4.99,18.425l-.354-.354a.5.5,0,0,1,0-.707l.354-.353a.5.5,0,0,1,.707,0l.353.353a.5.5,0,0,1,0,.707l-.353.354a.5.5,0,0,1-.707,0Zm12.02-.707-.353-.353a.5.5,0,0,1,0-.707l.353-.354a.5.5,0,0,1,.707,0l.354.354a.5.5,0,0,1,0,.707l-.354.353a.5.5,0,0,1-.707,0ZM19.5,11a.5.5,0,0,1-.5-.5V10a.5.5,0,0,1,.5-.5h2a.5.5,0,0,1,.5.5v.5a.5.5,0,0,1-.5.5ZM.5,11a.5.5,0,0,1-.5-.5V10a.5.5,0,0,1,.5-.5h2A.5.5,0,0,1,3,10v.5a.5.5,0,0,1-.5.5ZM16.3,4.283l-.355-.355a.5.5,0,0,1,0-.707l.354-.354a.5.5,0,0,1,.706,0l.354.354a.5.5,0,0,1,0,.707l-.353.354a.5.5,0,0,1-.707,0Zm-11.314,0-.354-.354a.5.5,0,0,1,0-.707l.354-.354a.5.5,0,0,1,.707,0l.353.354a.5.5,0,0,1,0,.707L5.7,4.283a.5.5,0,0,1-.707,0ZM10.5,3a.5.5,0,0,1-.5-.5V.5a.5.5,0,0,1,.5-.5H11a.5.5,0,0,1,.5.5v2A.5.5,0,0,1,11,3Z" transform="translate(1 1)"/>
</svg>
