<svg id="icon-eyeprotectionmode-open" xmlns="http://www.w3.org/2000/svg" width="24.002" height="24" viewBox="0 0 24.002 24">
  <defs>
    <style>
      .cls-1 {
        fill: none;
      }

      .cls-2 {
        fill: #fff;
      }
    </style>
  </defs>
  <rect id="icon_护眼模式_background" data-name="icon/护眼模式 background" class="cls-1" width="24" height="24"/>
  <path id="减去_8" data-name="减去 8" class="cls-2" d="M11.839,16C7.729,16,3.811,13.515.194,8.611A1.058,1.058,0,0,1,.169,7.426,20.974,20.974,0,0,1,3.5,3.725,16.935,16.935,0,0,1,7.263,1.178,11.284,11.284,0,0,1,12.162,0c4.1,0,8.018,2.486,11.645,7.39a1.061,1.061,0,0,1,.024,1.185,20.731,20.731,0,0,1-3.326,3.7,16.964,16.964,0,0,1-3.767,2.548A11.284,11.284,0,0,1,11.839,16Zm.545-13a5,5,0,1,0,5,5A5.005,5.005,0,0,0,12.384,3Z" transform="translate(0.002 4.002)"/>
  <circle id="椭圆_18" data-name="椭圆 18" class="cls-2" cx="2" cy="2" r="2" transform="translate(12.002 9.002)"/>
</svg>
