<svg id="icon-calculator" xmlns="http://www.w3.org/2000/svg" width="24" height="24.004" viewBox="0 0 24 24.004">
  <defs>
    <style>
      .cls-1 {
        fill: none;
      }

      .cls-2 {
        fill: #9c9c9c;
      }
    </style>
  </defs>
  <rect id="icon_计算器_background" data-name="icon/计算器 background" class="cls-1" width="24" height="24" transform="translate(0 0.002)"/>
  <g id="计算器-1" transform="translate(-15 -13.998)">
    <path id="减去_11" data-name="减去 11" class="cls-2" d="M15721-17964h-15a2,2,0,0,1-2-2v-20a2,2,0,0,1,2-2h15a2,2,0,0,1,2,2v20A2,2,0,0,1,15721-17964Zm-2.5-8a1.5,1.5,0,0,0-1.5,1.5,1.5,1.5,0,0,0,1.5,1.5,1.5,1.5,0,0,0,1.5-1.5A1.505,1.505,0,0,0,15718.5-17972Zm-5,0a1.5,1.5,0,0,0-1.5,1.5,1.5,1.5,0,0,0,1.5,1.5,1.5,1.5,0,0,0,1.5-1.5A1.5,1.5,0,0,0,15713.5-17972Zm-5,0a1.5,1.5,0,0,0-1.5,1.5,1.5,1.5,0,0,0,1.5,1.5,1.5,1.5,0,0,0,1.5-1.5A1.5,1.5,0,0,0,15708.5-17972Zm10-5a1.5,1.5,0,0,0-1.5,1.5,1.5,1.5,0,0,0,1.5,1.5,1.5,1.5,0,0,0,1.5-1.5A1.5,1.5,0,0,0,15718.5-17977Zm-5,0a1.5,1.5,0,0,0-1.5,1.5,1.5,1.5,0,0,0,1.5,1.5,1.5,1.5,0,0,0,1.5-1.5A1.5,1.5,0,0,0,15713.5-17977Zm-5,0a1.5,1.5,0,0,0-1.5,1.5,1.5,1.5,0,0,0,1.5,1.5,1.5,1.5,0,0,0,1.5-1.5A1.5,1.5,0,0,0,15708.5-17977Zm-.5-7a1,1,0,0,0-1,1v2a1,1,0,0,0,1,1h11a1,1,0,0,0,1-1v-2a1,1,0,0,0-1-1Z" transform="translate(-15686 18002)"/>
  </g>
</svg>
