<svg id="icon-DND" xmlns="http://www.w3.org/2000/svg" width="24" height="24" viewBox="0 0 24 24">
  <defs>
    <style>
      .cls-1 {
        fill: #515151;
      }

      .cls-1, .cls-2 {
        opacity: 0;
      }

      .cls-2, .cls-3 {
        fill: #9c9c9c;
      }
    </style>
  </defs>
  <rect id="icon_勿扰模式-关闭_background" data-name="icon/勿扰模式-关闭 background" class="cls-1" width="24" height="24"/>
  <g id="icon-勿扰模式">
    <rect id="矩形" class="cls-2" width="24" height="24" rx="1"/>
    <path id="形状结合" class="cls-3" d="M5.829,18.947a.922.922,0,0,1-.6-.219l-.084-.081L3.059,16.369H0L16.311.059,16.213,0a1.679,1.679,0,0,1,.7.7,2.443,2.443,0,0,1,.245,1.242l0,.181V14a2.693,2.693,0,0,1-.247,1.422,1.679,1.679,0,0,1-.7.7,2.436,2.436,0,0,1-1.241.245l-.181,0H9.643l-.246.006a2.168,2.168,0,0,0-.458.059,1.617,1.617,0,0,0-.522.23,2.74,2.74,0,0,0-.525.474L6.509,18.647c-.018.02-.037.039-.057.057A.919.919,0,0,1,5.829,18.947ZM11.031,6.8a.924.924,0,0,0-.917.815l-.006.108V8.9a.922.922,0,0,0,.815.917l.108.006h1.174a.922.922,0,0,0,.917-.815l.006-.108V7.726a.924.924,0,0,0-.923-.923Z" transform="translate(5.843 3.247)"/>
    <path id="形状" class="cls-3" d="M2.384,16.615v0l-.021,0A3.5,3.5,0,0,1,1.2,16.483a1.789,1.789,0,0,1-.255-.112,1.7,1.7,0,0,1-.564-.49l-.009-.012-.008-.011a1.626,1.626,0,0,1-.094-.15l0-.009,0-.007-.01-.019-.034-.066A2.49,2.49,0,0,1,0,14.466c0-.012,0-.024,0-.036L0,2.369a3.765,3.765,0,0,1,.112-1.1A1.7,1.7,0,0,1,.248.943a1.68,1.68,0,0,1,.7-.7C1,.214,1.058.187,1.116.163l0,0h0A2.212,2.212,0,0,1,1.864.014c.1-.006.2-.009.32-.01l.18,0H19L12.356,6.645l-9.97,9.97ZM4.952,10.07H6.128a.922.922,0,0,0,.916-.814l0-.111V7.975a.92.92,0,0,0-.921-.924H4.95a.926.926,0,0,0-.773.419.914.914,0,0,0-.141.394l-.007.091V9.145a.924.924,0,0,0,.1.427.941.941,0,0,0,.21.268.914.914,0,0,0,.5.223l.07.006Z" transform="translate(0.846 3)"/>
    <rect id="矩形-2" data-name="矩形" class="cls-3" width="1.846" height="28" rx="0.5" transform="translate(20.17 0.448) rotate(45)"/>
  </g>
</svg>
