<?xml version="1.0" encoding="utf-8"?>
<!-- Generator: Adobe Illustrator 21.0.0, SVG Export Plug-In . SVG Version: 6.00 Build 0)  -->
<svg version="1.1" id="设置" xmlns="http://www.w3.org/2000/svg" xmlns:xlink="http://www.w3.org/1999/xlink" x="0px" y="0px"
	 viewBox="0 0 14 14" style="enable-background:new 0 0 14 14;" xml:space="preserve">
<style type="text/css">
	.st0{fill:#808080;}
</style>
<g id="_16">
	<g id="_16-2">
		<g>
			<path class="st0" d="M7,5c1.1,0,2,0.9,2,2S8.1,9,7,9S5,8.1,5,7S5.9,5,7,5 M7,4C5.3,4,4,5.3,4,7s1.3,3,3,3s3-1.3,3-3S8.7,4,7,4
				L7,4z"/>
		</g>
		<g>
			<path class="st0" d="M9,1.2l0.9,0.3v1.8v1h1l1.9,0.1L13,5.1l-1.5,1.4l-0.8,0.8L11.5,8l1.3,1.1l-0.3,0.7h-1.8h-1v1v1.8l-0.6,0.2
				l-1.5-1.4l-0.7-0.7l-0.7,0.7l-1.3,1.3l-0.4-0.1v-1.9v-1h-1l-2-0.1L1.2,9.1l1.3-1.5l0.7-0.7L2.5,6.3L1.2,5l0.3-0.8l1.8,0.3
				l1.2,0.2V3.5l-0.1-2l0.5-0.3l1.3,1.3l0.7,0.7l0.7-0.7L9,1.2 M8.8,0L6.9,1.9L5.1,0L3.4,0.9l0.1,2.6L0.9,3.1L0,5.3L1.8,7L0,9
				l0.9,1.7l2.6,0.1v2.6L5.2,14l1.7-1.8l2,1.8l1.8-0.7v-2.5h2.5l0.8-2l-1.9-1.6L14,5.4l-0.5-2l-2.6-0.1V0.8L8.8,0L8.8,0z"/>
		</g>
	</g>
</g>
</svg>
