<?xml version="1.0" encoding="utf-8"?>
<!-- Generator: Adobe Illustrator 24.0.0, SVG Export Plug-In . SVG Version: 6.00 Build 0)  -->
<svg version="1.1" id="放大" xmlns="http://www.w3.org/2000/svg" xmlns:xlink="http://www.w3.org/1999/xlink" x="0px" y="0px"
	 viewBox="0 0 16 16" style="enable-background:new 0 0 16 16;" xml:space="preserve">
<style type="text/css">
	.st0{fill:#FFFFFF;}
</style>
<path class="st0" d="M11,7c0,0.6-0.4,1-1,1H6C5.4,8,5,7.6,5,7H0v6c0,1.1,0.9,2,2,2h12c1.1,0,2-0.9,2-2V7H11z"/>
<path class="st0" d="M12,3V2c0-1.1-0.9-2-2-2H6C4.9,0,4,0.9,4,2v1H2C0.9,3,0,3.9,0,5v1h5c0-0.6,0.4-1,1-1h4c0.6,0,1,0.4,1,1h5V5
	c0-1.1-0.9-2-2-2H12z M11,3H5V2c0-0.6,0.4-1,1-1h4c0.6,0,1,0.4,1,1V3z"/>
</svg>
