<?xml version="1.0" encoding="iso-8859-1"?>
<!-- Generator: Adobe Illustrator 21.0.0, SVG Export Plug-In . SVG Version: 6.00 Build 0)  -->
<svg version="1.1" id="&#x56FE;&#x5C42;_1" xmlns="http://www.w3.org/2000/svg" xmlns:xlink="http://www.w3.org/1999/xlink" x="0px"
	 y="0px" viewBox="0 0 256 256" style="enable-background:new 0 0 256 256;" xml:space="preserve">
<title>画板 18</title>
<g id="&#x63A7;&#x5236;&#x9762;&#x677F;">
	<g id="&#x65F6;&#x95F4;">
		<g id="_256">
			<g id="&#x65F6;&#x949F;">
				<path style="opacity:0.08;enable-background:new    ;" d="M130,254C61.517,254,6,198.483,6,130S61.517,6,130,6
					s124,55.517,124,124C253.923,198.451,198.451,253.923,130,254z"/>
				<path style="opacity:0.1;enable-background:new    ;" d="M130,252C62.621,252,8,197.379,8,130S62.621,8,130,8
					s122,54.621,122,122C251.923,197.347,197.347,251.923,130,252z"/>
				<path style="opacity:0.2;enable-background:new    ;" d="M128,250C60.621,250,6,195.379,6,128S60.621,6,128,6
					s122,54.621,122,122C249.923,195.347,195.347,249.923,128,250z"/>
				
					<linearGradient id="SVGID_1_" gradientUnits="userSpaceOnUse" x1="128" y1="90" x2="128" y2="-150" gradientTransform="matrix(1 0 0 1 0 158)">
					<stop  offset="0" style="stop-color:#CFD8DC"/>
					<stop  offset="1" style="stop-color:#FFFFFF"/>
				</linearGradient>
				<circle style="fill:url(#SVGID_1_);" cx="128" cy="128" r="120"/>
				
					<linearGradient id="SVGID_2_" gradientUnits="userSpaceOnUse" x1="128" y1="-150" x2="128" y2="90" gradientTransform="matrix(1 0 0 1 0 158)">
					<stop  offset="0" style="stop-color:#4DD0E1"/>
					<stop  offset="1" style="stop-color:#0097A7"/>
				</linearGradient>
				<path style="fill:url(#SVGID_2_);" d="M128,18c60.751,0.002,109.998,49.252,109.997,110.003
					c-0.001,29.172-11.589,57.148-32.217,77.777c-43.245,42.669-112.891,42.202-155.56-1.043
					C7.955,161.902,7.955,93.055,50.22,50.22C70.803,29.523,98.811,17.921,128,18 M128,8C61.726,8,8,61.726,8,128
					s53.726,120,120,120s120-53.726,120-120S194.274,8,128,8z"/>
				<circle style="fill:#4D5D6A;" cx="128" cy="128" r="10.53"/>
				<line style="fill:none;stroke:#4D5D6A;stroke-width:8;stroke-miterlimit:10;" x1="142.32" y1="115.58" x2="84.32" y2="165.89"/>
				<line style="fill:none;stroke:#4D5D6A;stroke-width:6;stroke-miterlimit:10;" x1="137.07" y1="143.8" x2="98.7" y2="47.57"/>
				
					<line style="fill:none;stroke:#E67A70;stroke-width:3;stroke-miterlimit:10;" x1="117.47" y1="116.93" x2="182.21" y2="183.26"/>
				<path style="fill:#455A64;" d="M128,133.66c-3.126,0-5.66-2.534-5.66-5.66l0,0c0.131-3.123,2.77-5.548,5.893-5.417
					c2.939,0.124,5.293,2.478,5.417,5.417C133.65,131.122,131.122,133.654,128,133.66z"/>
				<path style="fill:#E67A70;" d="M128,123.84c2.212,0.195,3.965,1.948,4.16,4.16c-0.113,2.295-2.064,4.064-4.359,3.951
					c-2.137-0.105-3.846-1.814-3.951-3.951c0.195-2.212,1.948-3.965,4.16-4.16 M128.01,120.84c-3.871,0.195-6.965,3.289-7.16,7.16
					c0.148,3.952,3.471,7.035,7.423,6.887c3.744-0.14,6.747-3.143,6.887-6.887c-0.191-3.873-3.287-6.969-7.16-7.16H128.01z"/>
				<circle style="fill:#455A64;" cx="128" cy="35.65" r="8.05"/>
				<circle style="fill:#455A64;" cx="128" cy="221.4" r="8.05"/>
				<circle style="fill:#455A64;" cx="35.13" cy="128.53" r="8.05"/>
				<circle style="fill:#455A64;" cx="220.87" cy="128.53" r="8.05"/>
				<path style="fill:#4D5D6A;" d="M171.65,210l5.58-3.22l-9.79-17c-1.81,1.16-3.65,2.25-5.56,3.24L171.65,210z"/>
				<path style="fill:#4D5D6A;" d="M84.35,45.95l-5.58,3.22l9.79,17c1.81-1.16,3.65-2.25,5.56-3.25L84.35,45.95z"/>
				<path style="fill:#4D5D6A;" d="M49.18,78.76L46,84.34l16.93,9.78c1-1.91,2.09-3.76,3.24-5.56L49.18,78.76z"/>
				<path style="fill:#4D5D6A;" d="M206.82,177.22l3.22-5.58l-16.93-9.78c-1,1.91-2.09,3.76-3.24,5.56L206.82,177.22z"/>
				<path style="fill:#4D5D6A;" d="M46,171.64l3.22,5.58l17-9.79c-1.16-1.81-2.25-3.66-3.24-5.57L46,171.64z"/>
				<path style="fill:#4D5D6A;" d="M210,84.34l-3.22-5.58l-17,9.79c1.16,1.81,2.25,3.66,3.24,5.57L210,84.34z"/>
				<path style="fill:#4D5D6A;" d="M177.23,49.17l-5.58-3.22l-9.77,16.93c1.91,1,3.76,2.09,5.56,3.25L177.23,49.17z"/>
				<path style="fill:#4D5D6A;" d="M78.77,206.81l5.58,3.19l9.78-16.93c-1.91-1-3.76-2.09-5.56-3.24L78.77,206.81z"/>
			</g>
		</g>
	</g>
</g>
</svg>
