<?xml version="1.0" encoding="utf-8"?>
<!-- Generator: Adobe Illustrator 24.0.0, SVG Export Plug-In . SVG Version: 6.00 Build 0)  -->
<svg version="1.1" id="放大" xmlns="http://www.w3.org/2000/svg" xmlns:xlink="http://www.w3.org/1999/xlink" x="0px" y="0px"
	 viewBox="0 0 16 16" style="enable-background:new 0 0 16 16;" xml:space="preserve">
<style type="text/css">
	.st0{fill:#FFFFFF;}
</style>
<g>
	<path class="st0" d="M15,3h-4V2c0-0.6-0.4-1-1-1H6C5.4,1,5,1.4,5,2v1H1C0.4,3,0,3.4,0,4v3h6c0-0.6,0.4-1,1-1h2c0.6,0,1,0.4,1,1h6V4
		C16,3.4,15.6,3,15,3z M6,2h4v1H6V2z M15,6h-4.3c-0.3-0.6-1-1-1.7-1H7C6.3,5,5.6,5.4,5.3,6H1V4h4h1h4h1h4V6z"/>
	<path class="st0" d="M10,9c0,0.6-0.4,1-1,1H7c-0.6,0-1-0.5-1-1V8H0v6c0,0.6,0.4,1,1,1h14c0.6,0,1-0.5,1-1V8h-6V9z M11,9L11,9l4,0v5
		c0,0,0,0,0,0L1,14c0,0,0,0,0-0.1V9h4v0c0,1.1,0.9,2,2,2h2C10.1,11.1,11,10.2,11,9z"/>
</g>
</svg>
