<svg id="图层_1" data-name="图层 1" xmlns="http://www.w3.org/2000/svg" viewBox="0 0 16 16"><defs><style>.cls-1{fill:#8c8e91;}</style></defs><title>列表模式</title><path class="cls-1" d="M2,2V3H1V2H2M2,1H1A1,1,0,0,0,0,2V3A1,1,0,0,0,1,4H2A1,1,0,0,0,3,3V2A1,1,0,0,0,2,1Z"/><path class="cls-1" d="M2,7V8H1V7H2M2,6H1A1,1,0,0,0,0,7V8A1,1,0,0,0,1,9H2A1,1,0,0,0,3,8V7A1,1,0,0,0,2,6Z"/><path class="cls-1" d="M2,12v1H1V12H2m0-1H1a1,1,0,0,0-1,1v1a1,1,0,0,0,1,1H2a1,1,0,0,0,1-1V12a1,1,0,0,0-1-1Z"/><polygon class="cls-1" points="16 2 5 2 5 3 16 3 16 2 16 2"/><polygon class="cls-1" points="16 7 5 7 5 8 16 8 16 7 16 7"/><polygon class="cls-1" points="16 12 5 12 5 13 16 13 16 12 16 12"/></svg>