<svg id="图层_1" data-name="图层 1" xmlns="http://www.w3.org/2000/svg" viewBox="0 0 16 16"><defs><style>.cls-1{fill:#8c8e91;}</style></defs><title>剪切</title><path class="cls-1" d="M14.6,0,8,7.66,1.4,0s.1,4.7,2.2,6.8A6.66,6.66,0,0,0,6.92,8.48a1.51,1.51,0,0,0-.42,1L4.83,10.61A3,3,0,0,0,3,10H3a3,3,0,1,0,2.52,1.35l1.33-.91A1.54,1.54,0,0,0,8,11a1.54,1.54,0,0,0,1.14-.56l1.34.91A3,3,0,1,0,13,10h0a3,3,0,0,0-1.81.61L9.5,9.47a1.51,1.51,0,0,0-.42-1A6.69,6.69,0,0,0,12.4,6.8c2-2.1,2.2-6.8,2.2-6.8ZM8,10H8a.5.5,0,1,1,.5-.5.47.47,0,0,1-.44.5Zm5,5a2,2,0,1,1,2-2,2,2,0,0,1-2,2ZM3,15a2,2,0,1,1,2-2,2,2,0,0,1-2,2Z"/></svg>