<svg id="图层_1" data-name="图层 1" xmlns="http://www.w3.org/2000/svg" viewBox="0 0 16 16"><defs><style>.cls-1{fill:#8c8e91;}</style></defs><title>图标模式</title><path class="cls-1" d="M6,2V6H2V2H6M6,1H2A1,1,0,0,0,1,2V6A1,1,0,0,0,2,7H6A1,1,0,0,0,7,6V2A1,1,0,0,0,6,1Z"/><path class="cls-1" d="M14,2V6H10V2h4m0-1H10A1,1,0,0,0,9,2V6a1,1,0,0,0,1,1h4a1,1,0,0,0,1-1V2a1,1,0,0,0-1-1Z"/><path class="cls-1" d="M6,10v4H2V10H6M6,9H2a1,1,0,0,0-1,1v4a1,1,0,0,0,1,1H6a1,1,0,0,0,1-1V10A1,1,0,0,0,6,9Z"/><path class="cls-1" d="M14,10v4H10V10h4m0-1H10a1,1,0,0,0-1,1v4a1,1,0,0,0,1,1h4a1,1,0,0,0,1-1V10a1,1,0,0,0-1-1Z"/></svg>