<svg id="图层_1" data-name="图层 1" xmlns="http://www.w3.org/2000/svg" viewBox="0 0 16 16"><defs><style>.cls-1{fill:#8c8e91;}</style></defs><title>复制为新便签</title><path class="cls-1" d="M2,14a1,1,0,0,1-1-1V3H2A2,2,0,0,0,4,5H9a2,2,0,0,0,2-2h1V6h1V2H9A2,2,0,0,0,7,0H6A2,2,0,0,0,4,2H0V13a2,2,0,0,0,2,2H7.28A2,2,0,0,1,7,14ZM5,3V2A1,1,0,0,1,6,1H7A1,1,0,0,1,8,2V3h2A1,1,0,0,1,9,4H4A1,1,0,0,1,3,3Z"/><path class="cls-1" d="M14,6H9A2,2,0,0,0,7,8v6a2,2,0,0,0,.28,1A2,2,0,0,0,9,16h5a2,2,0,0,0,2-2V8A2,2,0,0,0,14,6Zm1,8a1,1,0,0,1-1,1H9a1,1,0,0,1-1-1V8A1,1,0,0,1,9,7h5a1,1,0,0,1,1,1Z"/><rect class="cls-1" x="10" y="9" width="3" height="1"/><rect class="cls-1" x="10" y="11" width="3" height="1"/></svg>