<svg id="图层_1" data-name="图层 1" xmlns="http://www.w3.org/2000/svg" viewBox="0 0 12 12"><defs><style>.cls-1{fill:#3d6be5;}.cls-2{fill:#8c8e91;}</style></defs><title>排序-小图标-顺序</title><path class="cls-1" d="M3.53,11a.44.44,0,0,1-.36-.18L.11,6.89a.51.51,0,0,1,.06-.7.45.45,0,0,1,.66.06L3.06,9.11V1.5A.47.47,0,1,1,4,1.5v9a.49.49,0,0,1-.31.47A.45.45,0,0,1,3.53,11Z"/><path class="cls-2" d="M7.47,11A.48.48,0,0,1,7,10.5v-9A.49.49,0,0,1,7.31,1a.45.45,0,0,1,.52.15l3.06,3.93a.51.51,0,0,1-.06.7.45.45,0,0,1-.66-.06L7.94,2.89V10.5A.48.48,0,0,1,7.47,11Z"/></svg>