<svg id="图层_1" data-name="图层 1" xmlns="http://www.w3.org/2000/svg" viewBox="0 0 16 16"><defs><style>.cls-1{fill:#8c8e91;}.cls-2{fill:none;stroke:#8c8e91;stroke-linecap:round;stroke-linejoin:round;}</style></defs><title>插入多选框-new</title><path class="cls-1" d="M12.5,1A2.5,2.5,0,0,1,15,3.5v9A2.5,2.5,0,0,1,12.5,15h-9A2.5,2.5,0,0,1,1,12.5v-9A2.5,2.5,0,0,1,3.5,1h9m0-1h-9A3.5,3.5,0,0,0,0,3.5v9A3.5,3.5,0,0,0,3.5,16h9A3.5,3.5,0,0,0,16,12.5v-9A3.5,3.5,0,0,0,12.5,0Z"/><polyline class="cls-2" points="4 7 7 10 12 5"/></svg>