<svg id="图层_1" data-name="图层 1" xmlns="http://www.w3.org/2000/svg" viewBox="0 0 16 16"><defs><style>.cls-1{fill:#8c8e91;}</style></defs><title>粘贴 副本</title><path class="cls-1" d="M15,2H1V14a2,2,0,0,0,2,2H13a2,2,0,0,0,2-2V2ZM3,15a1,1,0,0,1-1-1V3H14V14a1,1,0,0,1-1,1Z"/><path class="cls-1" d="M13,3H12v7a1,1,0,0,1-1,1H5a1,1,0,0,1-1-1V3H3v7a2,2,0,0,0,2,2h6a2,2,0,0,0,2-2V3Z"/><path class="cls-1" d="M9,0H7A2,2,0,0,0,5,2H6A1,1,0,0,1,7,1H9a1,1,0,0,1,1,1h1A2,2,0,0,0,9,0Z"/><polygon class="cls-1" points="11 5 5 5 5 6 11 6 11 5 11 5"/><polygon class="cls-1" points="11 8 5 8 5 9 11 9 11 8 11 8"/></svg>