<svg id="图层_1" data-name="图层 1" xmlns="http://www.w3.org/2000/svg" viewBox="0 0 16 16"><defs><style>.cls-1{fill:#8c8e91;}</style></defs><title>转换成便签页</title><path class="cls-1" d="M9,6a1,1,0,0,1,1,1v7a1,1,0,0,1-1,1H2a1,1,0,0,1-1-1V7A1,1,0,0,1,2,6H9M9,5H2A2,2,0,0,0,0,7v7a2,2,0,0,0,2,2H9a2,2,0,0,0,2-2V7A2,2,0,0,0,9,5Z"/><rect class="cls-1" x="3" y="8" width="5" height="1"/><rect class="cls-1" x="3" y="11" width="5" height="1"/><path class="cls-1" d="M14,0H7A2,2,0,0,0,5,2V3H6V2A1,1,0,0,1,7,1h7a1,1,0,0,1,1,1V9a1,1,0,0,1-1,1H13v1h1a2,2,0,0,0,2-2V2A2,2,0,0,0,14,0Z"/></svg>