<?xml version="1.0" encoding="UTF-8"?>
<svg width="24px" height="24px" viewBox="0 0 24 24" version="1.1" xmlns="http://www.w3.org/2000/svg" xmlns:xlink="http://www.w3.org/1999/xlink">
    <title>侧边栏/icon/自动旋转</title>
    <g id="Icon" stroke="none" stroke-width="1" fill="none" fill-rule="evenodd">
        <g id="Icon-Sets" transform="translate(-239.000000, -799.000000)">
            <g id="编组" transform="translate(239.000000, 799.000000)">
                <g id="icon/自动旋转" fill="#EEF9FF" fill-opacity="0.75" fill-rule="nonzero" opacity="0">
                    <path d="M1.2819426,-5.17920154e-17 L22.7180574,5.17920154e-17 C23.1638168,-3.00926524e-17 23.3254599,0.0464128056 23.4884229,0.133566352 C23.6513858,0.220719898 23.7792801,0.348614185 23.8664336,0.511577148 C23.9535872,0.674540111 24,0.83618323 24,1.2819426 L24,22.7180574 C24,23.1638168 23.9535872,23.3254599 23.8664336,23.4884229 C23.7792801,23.6513858 23.6513858,23.7792801 23.4884229,23.8664336 C23.3254599,23.9535872 23.1638168,24 22.7180574,24 L1.2819426,24 C0.83618323,24 0.674540111,23.9535872 0.511577148,23.8664336 C0.348614185,23.7792801 0.220719898,23.6513858 0.133566352,23.4884229 C0.0464128056,23.3254599 2.00617683e-17,23.1638168 -3.45280103e-17,22.7180574 L3.45280103e-17,1.2819426 C-2.00617683e-17,0.83618323 0.0464128056,0.674540111 0.133566352,0.511577148 C0.220719898,0.348614185 0.348614185,0.220719898 0.511577148,0.133566352 C0.674540111,0.0464128056 0.83618323,3.00926524e-17 1.2819426,-5.17920154e-17 Z" id="矩形备份-8"></path>
                </g>
                <path d="M14,4 L14,6 L9,6 C5.6862915,6 3,8.6862915 3,12 C3,13.4386803 3.50635269,14.7590956 4.35056585,15.7927536 C4.39371299,15.8455832 4.48929607,15.9486446 4.63731508,16.101938 C4.87005532,16.342969 5.0001315,16.6649419 5.0001315,17 L5.0001315,17 L5.0001315,17 L5.0001315,18.1633349 C5.00012919,18.3939979 4.81313987,18.5809872 4.58247685,18.5809872 C4.49507048,18.5809872 4.40986677,18.5535645 4.33886903,18.5025822 C4.33886903,18.5025822 4.33886903,18.5025822 4.33886903,18.5025822 C2.31697865,17.0506962 1,14.6791465 1,12 C1,7.581722 4.581722,4 9,4 L14,4 Z" id="形状" fill="#A8A8A8" fill-rule="nonzero"></path>
                <path d="M23,5.41901276 L23,7.41901276 L18,7.41901276 C14.6862915,7.41901276 12,10.1053043 12,13.4190128 C12,14.8576931 12.5063527,16.1781083 13.3505659,17.2117664 C13.393713,17.2645959 13.4892961,17.3676574 13.6373151,17.5209508 C13.8700553,17.7619818 14.0001315,18.0839546 14.0001315,18.4190128 L14.0001315,18.4190128 L14.0001315,18.4190128 L14.0001315,19.5823477 C14.0001292,19.8130107 13.8131399,20 13.5824769,20 C13.4950705,20 13.4098668,19.9725772 13.338869,19.9215949 C13.338869,19.9215949 13.338869,19.9215949 13.338869,19.9215949 C11.3169786,18.469709 10,16.0981593 10,13.4190128 C10,9.00073476 13.581722,5.41901276 18,5.41901276 L23,5.41901276 Z" id="形状备份" fill="#A8A8A8" fill-rule="nonzero" transform="translate(16.500000, 12.709506) scale(-1, -1) translate(-16.500000, -12.709506) "></path>
                <path d="M12,15.9008541 L12,22.0991459 C12,22.3752882 11.7761424,22.5991459 11.5,22.5991459 C11.3830317,22.5991459 11.2697653,22.5581378 11.1799078,22.4832565 L7.92186554,19.7682213 C7.49758864,19.4146572 7.44026457,18.7840925 7.79382866,18.3598156 C7.83254788,18.3133525 7.87540247,18.2704979 7.92186554,18.2317787 L11.1799078,15.5167435 C11.3920462,15.3399615 11.7073286,15.3686235 11.8841106,15.5807619 C11.9589919,15.6706194 12,15.7838859 12,15.9008541 Z" id="矩形" fill="#A8A8A8"></path>
                <path d="M17,2.06752081 L17,8.26581253 C17,8.5419549 16.7761424,8.76581253 16.5,8.76581253 C16.3830317,8.76581253 16.2697653,8.72480442 16.1799078,8.64992317 L12.9218655,5.93488795 C12.4975886,5.58132387 12.4402646,4.95075916 12.7938287,4.52648227 C12.8325479,4.4800192 12.8754025,4.43716461 12.9218655,4.39844539 L16.1799078,1.68341017 C16.3920462,1.50662813 16.7073286,1.53529016 16.8841106,1.74742861 C16.9589919,1.83728611 17,1.95055255 17,2.06752081 Z" id="矩形备份" fill="#A8A8A8" transform="translate(14.500000, 5.166667) scale(-1, 1) translate(-14.500000, -5.166667) "></path>
            </g>
        </g>
    </g>
</svg>