<?xml version="1.0" encoding="utf-8"?>
<!-- Generator: Adobe Illustrator 24.1.2, SVG Export Plug-In . SVG Version: 6.00 Build 0)  -->
<svg version="1.1" id="图层_1" xmlns="http://www.w3.org/2000/svg" xmlns:xlink="http://www.w3.org/1999/xlink" x="0px" y="0px"
	 viewBox="0 0 20 29" enable-background="new 0 0 20 29" xml:space="preserve">
<path opacity="0.65" fill="#FFFFFF" d="M10,28.9c-0.1,0-0.3,0-0.4-0.1C9.2,28.6,9,28.3,9,27.9v-11l-6.9,5.4
	c-0.4,0.3-1.1,0.3-1.4-0.2c-0.3-0.4-0.3-1.1,0.2-1.4l8.1-6.3L0.8,8.1c-0.4-0.3-0.5-1-0.2-1.4c0.3-0.4,1-0.5,1.4-0.2L9,11.9V1
	c0-0.4,0.2-0.7,0.6-0.9c0.3-0.2,0.7-0.1,1.1,0.1l8.9,6.8c0.2,0.2,0.4,0.5,0.4,0.8c0,0.3-0.1,0.6-0.4,0.8l-7.4,5.8l7.4,5.8
	c0.2,0.2,0.4,0.5,0.4,0.8c0,0.3-0.1,0.6-0.4,0.8l-8.9,6.9C10.4,28.8,10.2,28.9,10,28.9z M11,16v9.8l6.3-4.9L11,16z M11,3v9.8
	l6.3-4.9L11,3z"/>
</svg>
