<?xml version="1.0" encoding="utf-8"?>
<!-- Generator: Adobe Illustrator 24.1.2, SVG Export Plug-In . SVG Version: 6.00 Build 0)  -->
<svg version="1.1" id="图层_1" xmlns="http://www.w3.org/2000/svg" xmlns:xlink="http://www.w3.org/1999/xlink" x="0px" y="0px"
	 viewBox="0 0 17 25" enable-background="new 0 0 17 25" xml:space="preserve">
<path id="形状" opacity="0.6534" fill="#FFFFFF" enable-background="new    " d="M1.6,19.7L7,15.4v8.4c0,0.5,0.3,0.9,0.7,1.1
	C8.1,25.1,8.6,25,9,24.8l7.5-5.6c0.3-0.2,0.5-0.6,0.5-1c0-0.4-0.2-0.8-0.5-1l-5.9-4.6l5.9-4.6c0.3-0.2,0.5-0.6,0.5-1
	c0-0.4-0.2-0.8-0.5-1L9,0.2C8.6,0,8.1-0.1,7.7,0.1C7.3,0.3,7,0.8,7,1.2v8.4L1.6,5.3L0,7.2l6.6,5.3L0,17.8L1.6,19.7z M9.5,3.7
	l4.2,3.2l-4.2,3.3V3.7z M9.5,14.8l4.2,3.3l-4.2,3.2V14.8L9.5,14.8z"/>
</svg>
