<?xml version="1.0" encoding="utf-8"?>
<!-- Generator: Adobe Illustrator 24.1.2, SVG Export Plug-In . SVG Version: 6.00 Build 0)  -->
<svg version="1.1" id="图层_1" xmlns="http://www.w3.org/2000/svg" xmlns:xlink="http://www.w3.org/1999/xlink" x="0px" y="0px"
	 viewBox="0 0 24 30" enable-background="new 0 0 24 30" xml:space="preserve">
<path opacity="0.65" fill="#FFFFFF" d="M22,0H2C0.9,0,0,0.9,0,2v26c0,1.1,0.9,2,2,2h20c1.1,0,2-0.9,2-2V2C24,0.9,23.1,0,22,0z M5,27
	c-1.1,0-2-0.9-2-2s0.9-2,2-2s2,0.9,2,2S6.1,27,5,27z M5,21c-1.1,0-2-0.9-2-2s0.9-2,2-2s2,0.9,2,2S6.1,21,5,21z M5,15
	c-1.1,0-2-0.9-2-2s0.9-2,2-2s2,0.9,2,2S6.1,15,5,15z M12,27c-1.1,0-2-0.9-2-2s0.9-2,2-2s2,0.9,2,2S13.1,27,12,27z M12,21
	c-1.1,0-2-0.9-2-2s0.9-2,2-2s2,0.9,2,2S13.1,21,12,21z M12,15c-1.1,0-2-0.9-2-2s0.9-2,2-2s2,0.9,2,2S13.1,15,12,15z M21,25
	c0,1.1-0.9,2-2,2s-2-0.9-2-2v-6c0-1.1,0.9-2,2-2s2,0.9,2,2V25z M19,15c-1.1,0-2-0.9-2-2s0.9-2,2-2s2,0.9,2,2S20.1,15,19,15z M21,6.5
	C21,7.3,20.3,8,19.5,8h-15C3.7,8,3,7.3,3,6.5v-2C3,3.7,3.7,3,4.5,3h15C20.3,3,21,3.7,21,4.5V6.5z"/>
</svg>
