<?xml version="1.0" encoding="utf-8"?>
<!-- Generator: Adobe Illustrator 24.1.2, SVG Export Plug-In . SVG Version: 6.00 Build 0)  -->
<svg version="1.1" id="图层_1" xmlns="http://www.w3.org/2000/svg" xmlns:xlink="http://www.w3.org/1999/xlink" x="0px" y="0px"
	 viewBox="0 0 20 25" enable-background="new 0 0 20 25" xml:space="preserve">
<path opacity="0.8021" fill="#FFFFFF" enable-background="new    " d="M18.3,0H1.7C0.8,0,0,0.8,0,1.7v21.6C0,24.2,0.8,25,1.7,25
	h16.6c0.9,0,1.7-0.8,1.7-1.7V1.7C20,0.8,19.2,0,18.3,0z M4.8,22.4c-0.8,0-1.5-0.7-1.5-1.5s0.7-1.5,1.5-1.5s1.5,0.7,1.5,1.5
	C6.3,21.8,5.6,22.4,4.8,22.4z M4.8,17.2c-0.8,0-1.5-0.7-1.5-1.5s0.7-1.5,1.5-1.5s1.5,0.7,1.5,1.5C6.3,16.6,5.6,17.2,4.8,17.2z
	 M4.8,12.1c-0.8,0-1.5-0.7-1.5-1.5S4,9.1,4.8,9.1s1.5,0.7,1.5,1.5S5.6,12.1,4.8,12.1z M10,22.4c-0.8,0-1.5-0.7-1.5-1.5
	s0.7-1.5,1.5-1.5s1.5,0.7,1.5,1.5C11.5,21.8,10.9,22.4,10,22.4z M10,17.2c-0.8,0-1.5-0.7-1.5-1.5s0.7-1.5,1.5-1.5s1.5,0.7,1.5,1.5
	C11.5,16.6,10.9,17.2,10,17.2z M10,12.1c-0.8,0-1.5-0.7-1.5-1.5S9.2,9.1,10,9.1s1.5,0.7,1.5,1.5S10.9,12.1,10,12.1z M16.7,20.9
	c0,0.8-0.7,1.5-1.5,1.5s-1.5-0.7-1.5-1.5v-5.2c0-0.8,0.7-1.5,1.5-1.5s1.5,0.7,1.5,1.5V20.9z M15.2,12.1c-0.8,0-1.5-0.7-1.5-1.5
	s0.7-1.5,1.5-1.5s1.5,0.7,1.5,1.5S16.1,12.1,15.2,12.1z M17.2,6.1c0,0.4-0.3,0.8-0.8,0.8H3.7c-0.4,0-0.8-0.3-0.8-0.8V3.7
	c0-0.4,0.3-0.8,0.8-0.8h12.7c0.4,0,0.8,0.3,0.8,0.8V6.1z"/>
</svg>
