<?xml version="1.0" encoding="utf-8"?>
<!-- Generator: Adobe Illustrator 24.1.2, SVG Export Plug-In . SVG Version: 6.00 Build 0)  -->
<svg version="1.1" id="图层_1" xmlns="http://www.w3.org/2000/svg" xmlns:xlink="http://www.w3.org/1999/xlink" x="0px" y="0px"
	 viewBox="0 0 31 29" enable-background="new 0 0 31 29" xml:space="preserve">
<path opacity="0.6534" fill="#FFFFFF" enable-background="new    " d="M22.4,26.8c3.7-2.4,6.1-6.6,6.1-11.1
	c0-7.2-5.8-13.1-12.9-13.1C8.4,2.6,2.6,8.5,2.6,15.7c0,4.5,2.3,8.7,6.1,11.1L7.3,29C2.8,26.1,0,21.1,0,15.7C0,7,7,0,15.5,0
	C24,0,31,7,31,15.7c0,5.4-2.8,10.5-7.3,13.3L22.4,26.8z M19.1,21c1.7-1.2,2.8-3.2,2.8-5.3c0-3.6-2.9-6.5-6.4-6.5s-6.4,2.9-6.4,6.5
	c0,2.1,1.1,4.1,2.8,5.3l-1.3,2.3c-2.5-1.7-4.1-4.5-4.1-7.6c0-5,4-9.1,9-9.1s9,4.1,9,9.1c0,3.1-1.5,5.9-4.1,7.6L19.1,21z M15.5,18.2
	c-1.4,0-2.5-1.1-2.5-2.5c0-1.4,1.1-2.5,2.5-2.5c1.4,0,2.5,1.1,2.5,2.5C18,17,16.9,18.2,15.5,18.2z"/>
</svg>
