<?xml version="1.0" encoding="utf-8"?>
<!-- Generator: Adobe Illustrator 24.1.2, SVG Export Plug-In . SVG Version: 6.00 Build 0)  -->
<svg version="1.1" id="图层_1" xmlns="http://www.w3.org/2000/svg" xmlns:xlink="http://www.w3.org/1999/xlink" x="0px" y="0px"
	 viewBox="0 0 27 25" enable-background="new 0 0 27 25" xml:space="preserve">
<path opacity="0.8" fill="#FFFFFF" enable-background="new    " d="M13.5,0C20.9,0,27,6,27,13.4c0,5-2.7,9.3-6.8,11.6l0,0l-1.5-2.6
	c3.1-1.8,5.3-5.2,5.3-9C24,7.7,19.3,3,13.5,3S3,7.7,3,13.4c0,3.9,2.1,7.2,5.3,9l0,0L6.8,25C2.7,22.7,0,18.4,0,13.4C0,6,6.1,0,13.5,0
	z M13.5,5.5c4.4,0,8,3.6,8,7.9c0,2.9-1.6,5.5-4,6.9l0,0L16,17.7c1.5-0.9,2.5-2.4,2.5-4.3c0-2.7-2.2-5-5-5s-5,2.2-5,5
	c0,1.8,1,3.4,2.5,4.3l0,0l-1.5,2.6c-2.4-1.4-4-3.9-4-6.9C5.5,9,9.1,5.5,13.5,5.5z M13.5,10.9c1.4,0,2.5,1.1,2.5,2.5
	s-1.1,2.5-2.5,2.5S11,14.8,11,13.4S12.1,10.9,13.5,10.9z"/>
</svg>
