<?xml version="1.0" encoding="utf-8"?>
<!-- Generator: Adobe Illustrator 24.1.2, SVG Export Plug-In . SVG Version: 6.00 Build 0)  -->
<svg version="1.1" id="图层_1" xmlns="http://www.w3.org/2000/svg" xmlns:xlink="http://www.w3.org/1999/xlink" x="0px" y="0px"
	 viewBox="0 0 22 22" enable-background="new 0 0 22 22" xml:space="preserve">
<path id="路径" opacity="0.8" fill="#FFFFFF" enable-background="new    " d="M19,18.7c1.5-1.5,2.5-3.4,3-5.3
	c0.1-0.6-0.5-0.9-0.9-0.5l0,0c-3.4,3.4-8.8,3.3-12.1-0.2C5.8,9.5,5.8,4.3,9,1.1C9,1.1,9.1,1,9.1,1c0.4-0.4,0-1.1-0.5-0.9
	C6.6,0.5,4.8,1.4,3.3,2.9c-4.4,4.3-4.4,11.4-0.1,15.8C7.6,23.1,14.7,23.1,19,18.7L19,18.7z"/>
</svg>
