<?xml version="1.0" encoding="utf-8"?>
<!-- Generator: Adobe Illustrator 24.1.2, SVG Export Plug-In . SVG Version: 6.00 Build 0)  -->
<svg version="1.1" id="图层_1" xmlns="http://www.w3.org/2000/svg" xmlns:xlink="http://www.w3.org/1999/xlink" x="0px" y="0px"
	 viewBox="0 0 26 26" enable-background="new 0 0 26 26" xml:space="preserve">
<path id="路径" opacity="0.6534" fill="#FFFFFF" enable-background="new    " d="M22.5,22.1c1.8-1.8,3-4,3.5-6.2
	c0.1-0.7-0.6-1.1-1.1-0.6l0,0c-4,4-10.5,3.9-14.3-0.2c-3.7-3.9-3.6-9.9,0.1-13.8c0,0,0.1-0.1,0.1-0.1c0.5-0.5,0-1.3-0.6-1.1
	C7.8,0.6,5.7,1.7,3.9,3.5c-5.2,5.1-5.2,13.5-0.1,18.6C9,27.3,17.3,27.3,22.5,22.1L22.5,22.1z"/>
</svg>
