<?xml version="1.0" encoding="utf-8"?>
<!-- Generator: Adobe Illustrator 24.1.2, SVG Export Plug-In . SVG Version: 6.00 Build 0)  -->
<svg version="1.1" id="图层_1" xmlns="http://www.w3.org/2000/svg" xmlns:xlink="http://www.w3.org/1999/xlink" x="0px" y="0px"
	 viewBox="0 0 24 23" enable-background="new 0 0 24 23" xml:space="preserve">
<desc>Created with Sketch.</desc>
<path opacity="0.8" fill="#FFFFFF" d="M21,0H3C1.3,0,0,1.3,0,3v13c0,1.7,1.3,3,3,3h7.5l1.4,2.7c0,0,0.3,0.4,0.4,0.5
	c0.4,0.5,0.8,0.8,1.5,0.8h3.7c1.1,0,1.9-0.9,1.9-2.1V19H21c1.7,0,3-1.3,3-3V3C24,1.3,22.7,0,21,0z M22,16c0,0.6-0.4,1-1,1h-1.6v-2.1
	c0-0.4-0.4-0.8-0.9-0.8c-0.3,0-0.6,0.2-0.8,0.5c0-0.6-0.5-1.1-1.1-1.1c-0.4,0-0.7,0.2-0.9,0.6c-0.2-0.3-0.5-0.6-0.9-0.6
	c-0.3,0-0.6,0.1-0.8,0.4v-3.3c0-0.7-0.5-1.2-1.1-1.2s-1.1,0.5-1.1,1.1V17h-0.1l-0.4-0.8c-0.2-0.4-0.6-0.6-0.9-0.6
	c-0.2,0-0.3,0-0.5,0.1C9.5,16,9.3,16.5,9.4,17H3c-0.6,0-1-0.4-1-1V3c0-0.6,0.4-1,1-1h18c0.6,0,1,0.4,1,1V16z"/>
</svg>
