<?xml version="1.0" encoding="utf-8"?>
<!-- Generator: Adobe Illustrator 24.1.2, SVG Export Plug-In . SVG Version: 6.00 Build 0)  -->
<svg version="1.1" id="图层_1" xmlns="http://www.w3.org/2000/svg" xmlns:xlink="http://www.w3.org/1999/xlink" x="0px" y="0px"
	 viewBox="0 0 28 27" enable-background="new 0 0 28 27" xml:space="preserve">
<path opacity="0.65" fill="#FFFFFF" d="M24.6,0H3.4C1.5,0,0,1.5,0,3.4v15.3C0,20.5,1.5,22,3.4,22h8.9l1.8,3.4c0,0,0.3,0.4,0.5,0.6
	c0.4,0.6,1,1,1.7,1h4.3c1.3,0,2.3-1.1,2.3-2.4V22h1.9c1.9,0,3.4-1.5,3.4-3.4V3.4C28,1.5,26.5,0,24.6,0z M26,18.6
	c0,0.7-0.6,1.4-1.4,1.4h-1.9v-2.4c0-0.6-0.5-1.1-1.1-1.1c-0.4,0-0.8,0.2-0.9,0.6V17c0-0.7-0.6-1.3-1.2-1.3c-0.5,0-0.9,0.3-1.1,0.7
	c-0.2-0.4-0.6-0.7-1.1-0.7c-0.4,0-0.7,0.2-0.9,0.4v-3.9c0-0.7-0.6-1.3-1.2-1.3c-0.7,0-1.2,0.6-1.2,1.3v7.7l-0.6-1.1
	c-0.2-0.4-0.6-0.7-1.1-0.7c-0.2,0-0.4,0.1-0.6,0.2c-0.6,0.3-0.8,1-0.5,1.6H3.4C2.6,20,2,19.4,2,18.6V3.4C2,2.6,2.6,2,3.4,2h21.3
	C25.4,2,26,2.6,26,3.4V18.6z"/>
</svg>
