<?xml version="1.0" encoding="UTF-8"?>
<svg width="24px" height="24px" viewBox="0 0 24 24" version="1.1" xmlns="http://www.w3.org/2000/svg" xmlns:xlink="http://www.w3.org/1999/xlink">
    <title>侧边栏/icon/节能-开启</title>
    <g id="Icon" stroke="none" stroke-width="1" fill="none" fill-rule="evenodd">
        <g id="Icon-Sets" transform="translate(-47.000000, -1106.000000)" fill-rule="nonzero">
            <g id="节能" transform="translate(47.000000, 1106.000000)">
                <rect id="矩形" fill="#000000" opacity="0" x="0" y="0" width="24" height="24"></rect>
                <path d="M2.44779812,21.3033801 C2.04865578,21.3033801 1.70757051,21.1419089 1.42454231,20.8189664 C1.1415141,20.496024 1,20.1095816 1,19.6596394 C1,19.311297 1.08527132,18.9085261 1.25581395,18.4513266 C1.42635659,17.9941272 1.64951344,17.5205993 1.92528451,17.0307428 C2.20105558,16.5408863 2.49678377,16.0546583 2.81246907,15.572059 C2.97031173,15.3307593 3.12497938,15.0998917 3.27647204,14.8794563 L3.41662543,14.6790397 L3.32409698,14.4834889 C2.90681181,13.536433 2.69816922,12.4895915 2.69816922,11.3429644 C2.69816922,10.2471373 2.90862609,9.24021004 3.32953983,8.32218266 C3.75045357,7.40415528 4.34009566,6.6058706 5.09846611,5.92732862 C5.85683655,5.24878665 6.75309253,4.72264447 7.78723404,4.3489021 C8.82137556,3.97515973 9.95167409,3.78828854 11.1781296,3.78828854 C11.8573973,3.78828854 12.5413096,3.83937876 13.2298664,3.9415592 L13.7471549,4.02777395 C14.6107538,4.18743088 15.5070097,4.26725935 16.4359228,4.26725935 C17.2342075,4.26725935 17.967178,4.13481667 18.6348342,3.8699313 C19.3024905,3.60504592 19.9120897,3.15691794 20.4636319,2.52554733 C20.688603,2.27154766 20.9553027,2.10826215 21.2637308,2.03569082 C21.572159,1.96311949 21.8606301,2.00121944 22.129144,2.14999067 C22.3976579,2.29876191 22.5827148,2.57634726 22.6843147,2.98274673 C22.7641432,3.323832 22.8276431,3.71934578 22.8748144,4.16928805 C22.906262,4.46924956 22.9312588,4.75792221 22.9498048,5.03530597 L22.9811012,5.6337171 L22.9811012,5.6337171 L22.9931964,5.96270715 L22.9931964,5.96270715 L23,6.32465668 L23,6.32465668 C23,8.26231131 22.7224146,10.0167233 22.1672439,11.5878927 C21.6120732,13.1590621 20.8174171,14.5070746 19.7832756,15.6319303 C18.7491341,16.756786 17.5099786,17.6221991 16.065809,18.2281698 C14.6216395,18.8341404 13.0069273,19.1371258 11.2216724,19.1371258 C9.98070262,19.1371258 8.83951839,18.946626 7.79811974,18.5656265 C6.7567211,18.184627 5.85502227,17.6457848 5.09302326,16.9491 L4.81535286,16.6819751 L4.69852548,16.5573019 L4.66412667,16.6203519 C4.61332674,16.7248546 4.56579251,16.8308087 4.521524,16.9382143 C4.30018143,17.4752422 4.10605311,18.0467415 3.93913904,18.6527121 C3.77222497,19.2586827 3.5835395,19.8991248 3.37308263,20.5740382 C3.29325416,20.835295 3.1698829,21.0221662 3.00296883,21.1346517 C2.83605476,21.2471373 2.65099786,21.3033801 2.44779812,21.3033801 Z M11.2216724,17.4062994 C13.2754412,17.4062994 15.0534389,16.9527286 16.5556655,16.0455869 C18.0578921,15.1384452 19.2190335,13.8575612 20.0390896,12.2029348 C20.8591456,10.5483083 21.2691737,8.58888231 21.2691737,6.32465668 C21.2691737,6.01259994 21.2655451,5.69328607 21.258288,5.36671507 C21.2528451,5.12178681 21.2371969,4.89931032 21.2113434,4.69928558 L21.1820881,4.50674475 C21.1675738,4.36160209 21.098631,4.33620212 20.9752598,4.43054485 C20.4019462,4.92402993 19.7052614,5.308658 18.8852053,5.58442907 C18.0651493,5.86020014 17.2487218,5.99808567 16.4359228,5.99808567 C15.8843807,5.99808567 15.3546099,5.96905714 14.8466106,5.91100007 L13.8644785,5.79488594 C13.7064343,5.77553358 13.5512123,5.75618123 13.3988125,5.73682887 C12.992413,5.67151467 12.6077849,5.61890045 12.2449283,5.57898622 C11.8820716,5.53907198 11.526472,5.51911487 11.1781296,5.51911487 C9.85733135,5.51911487 8.68893287,5.76948597 7.67293419,6.27022818 C6.65693551,6.77097038 5.8622794,7.45858378 5.28896586,8.33306836 C4.71565232,9.20755293 4.42899555,10.2108516 4.42899555,11.3429644 C4.42899555,12.0082017 4.51746986,12.6292018 4.69441848,13.2059647 L4.69991885,13.2173949 L4.80945749,13.1216341 C5.32910408,12.6978533 5.93162534,12.3317489 6.61702128,12.0233207 C7.85073396,11.46815 9.42190335,11.0381648 11.3305294,10.7333652 C12.0127,10.6172511 12.653142,10.4721084 13.2518555,10.2979372 C13.850569,10.123766 14.3966683,9.88790919 14.8901534,9.59036672 C15.3836385,9.29282425 15.822695,8.89731048 16.2073231,8.40382541 C16.3306944,8.2514256 16.4613228,8.1752257 16.5992083,8.1752257 C16.7370938,8.1752257 16.8459508,8.23328277 16.9257793,8.34939691 C17.0056078,8.46551104 17.0201221,8.61065371 16.9693221,8.78482491 C16.7516081,9.43070979 16.4014514,9.97136623 15.9188521,10.4067942 C15.4362527,10.8422222 14.8520534,11.1996361 14.1662543,11.4790357 C13.4804552,11.7584353 12.7238991,11.9961065 11.8965858,12.1920491 L11.1599128,12.371552 C11.0418733,12.4013211 10.9262034,12.4310161 10.8129033,12.460637 L10.1615385,12.6374741 C9.95389566,12.6961236 9.75573149,12.7544769 9.56704602,12.812534 C8.90664687,13.0157337 8.33151905,13.2388906 7.84166254,13.4820045 C7.35180604,13.7251185 6.91456375,14.0027039 6.52993568,14.3147606 C6.33762164,14.470789 6.14984331,14.6422387 5.96660069,14.8291099 L5.71847204,15.0984439 L5.93666502,15.3495069 C6.41805487,15.8679887 6.99862554,16.2977723 7.67837704,16.6388576 C8.69800429,17.1504855 9.87910275,17.4062994 11.2216724,17.4062994 Z" id="形状" fill="#FFFFFF"></path>
            </g>
        </g>
    </g>
</svg>