<?xml version="1.0" encoding="UTF-8"?>
<svg width="24px" height="24px" viewBox="0 0 24 24" version="1.1" xmlns="http://www.w3.org/2000/svg" xmlns:xlink="http://www.w3.org/1999/xlink">
    <title>侧边栏/icon/勿扰模式-开启</title>
    <g id="Icon" stroke="none" stroke-width="1" fill="none" fill-rule="evenodd">
        <g id="Icon-Sets" transform="translate(-47.000000, -1066.000000)">
            <g id="侧边栏/icon/勿扰模式-开启" transform="translate(47.000000, 1066.000000)">
                <polygon id="矩形" fill="#000000" opacity="0" points="0 0 24 0 24 24 0 24"></polygon>
                <path d="M17.0216267,4 C17.7663376,4 18.4662279,4.08671861 19.1212976,4.26015582 C19.7763673,4.43359303 20.367654,4.66426451 20.8951575,4.95217028 C21.422661,5.24007605 21.865695,5.56093489 22.2242595,5.9147468 C22.5230633,6.20959006 22.7524334,6.50925102 22.9123701,6.81372967 L23,6.99699499 L23,19.7616583 C23,20.2125951 22.8758815,20.5317195 22.6276446,20.7190317 C22.3794076,20.9063439 22.0966933,21 21.7795016,21 C21.5312647,21 21.3278483,20.9653126 21.1692525,20.8959377 C21.0106566,20.8265628 20.8555085,20.7363754 20.7038082,20.6253756 C20.3728256,20.3478761 19.9142768,20.077314 19.3281617,19.8136895 C18.7420467,19.5500649 17.9732017,19.4182526 17.0216267,19.4182526 C16.3803479,19.4182526 15.8149193,19.48069 15.3253409,19.6055648 C14.8357624,19.7304396 14.4185864,19.88133 14.0738129,20.0582359 C13.7290393,20.2351419 13.4566682,20.3999073 13.2566996,20.552532 C13.0981037,20.6565943 12.925717,20.7571879 12.7395393,20.8543127 C12.5533615,20.9514376 12.3051246,21 11.9948284,21 C11.6914277,21 11.4431907,20.9566407 11.2501175,20.8699221 C11.0570444,20.7832035 10.8881053,20.6774068 10.7433004,20.552532 C10.5502272,20.3929698 10.2813039,20.2247357 9.93653032,20.0478297 C9.59175678,19.8709238 9.17113305,19.7217678 8.67465914,19.6003617 C8.17818524,19.4789557 7.60930889,19.4182526 6.96803009,19.4182526 C6.34054223,19.4182526 5.79407616,19.48069 5.32863188,19.6055648 C4.86318759,19.7304396 4.46497414,19.8847987 4.13399154,20.0686422 C3.80300893,20.2524856 3.52374236,20.4380634 3.29619182,20.6253756 C3.13759599,20.7363754 2.97900016,20.8265628 2.82040433,20.8959377 C2.66180849,20.9653126 2.46183984,21 2.22049835,21 C1.89641122,21 1.61197304,20.9063439 1.36718383,20.7190317 C1.15299326,20.5551336 1.03251107,20.2903166 1.00573725,19.9245809 L1,19.7616583 L1,6.99699499 C1.15170036,6.62930811 1.40855665,6.26855871 1.77056888,5.9147468 C2.1325811,5.56093489 2.57733898,5.24007605 3.1048425,4.95217028 C3.63234603,4.66426451 4.22363266,4.43359303 4.8787024,4.26015582 C5.53377214,4.08671861 6.2302147,4 6.96803009,4 C7.71274095,4 8.41435512,4.09018735 9.07287259,4.27056205 C9.73139006,4.45093675 10.3140574,4.68681135 10.8208745,4.97818587 C11.3276916,5.26956038 11.7190096,5.5852161 11.9948284,5.92515303 C12.2775427,5.5852161 12.6705845,5.26956038 13.1739539,4.97818587 C13.6773233,4.68681135 14.2582667,4.45093675 14.9167842,4.27056205 C15.5753017,4.09018735 16.2769158,4 17.0216267,4 Z M6.96803009,5.80027824 C6.20263282,5.80027824 5.53204827,5.90434057 4.95627645,6.11246522 C4.38050462,6.32058987 3.91850807,6.56513634 3.57028679,6.84610462 C3.2718114,7.08693457 3.07085768,7.30355411 2.96742562,7.49596323 L2.92383639,7.59015025 L2.92383639,18.8042849 C3.42720577,18.4157856 4.03055947,18.1209423 4.73389751,17.9197551 C5.43723554,17.718568 6.1819464,17.6179744 6.96803009,17.6179744 C7.76100925,17.6179744 8.51089171,17.7168336 9.21767748,17.914552 C9.82349385,18.084025 10.3545858,18.3184838 10.8109534,18.6179284 L11.0329102,18.7730662 L11.0329102,7.59015025 C10.9639555,7.37508811 10.7536436,7.1270729 10.4019746,6.84610462 C10.0503056,6.56513634 9.58313744,6.32058987 9.00047015,6.11246522 C8.41780285,5.90434057 7.74032283,5.80027824 6.96803009,5.80027824 Z M17.0216267,5.80027824 C16.249334,5.80027824 15.5718539,5.90434057 14.9891866,6.11246522 C14.4065194,6.32058987 13.9410751,6.56513634 13.5928538,6.84610462 C13.2446325,7.1270729 13.0325968,7.37508811 12.9567466,7.59015025 L12.9567466,7.59015025 L12.9567466,18.7730662 C13.4670114,18.3984418 14.0738129,18.1122705 14.7771509,17.914552 C15.480489,17.7168336 16.2286475,17.6179744 17.0216267,17.6179744 C17.8077104,17.6179744 18.5541451,17.718568 19.2609309,17.9197551 C19.9677167,18.1209423 20.5693465,18.4157856 21.0658204,18.8042849 L21.0658204,18.8042849 L21.0658204,7.59015025 C20.9899702,7.37508811 20.7779345,7.1270729 20.4297132,6.84610462 C20.0814919,6.56513634 19.6177715,6.32058987 19.038552,6.11246522 C18.4593324,5.90434057 17.787024,5.80027824 17.0216267,5.80027824 Z" id="形状结合" fill="#FFFFFF"></path>
            </g>
        </g>
    </g>
</svg>