<?xml version="1.0" encoding="UTF-8"?>
<svg width="24px" height="24px" viewBox="0 0 24 24" version="1.1" xmlns="http://www.w3.org/2000/svg" xmlns:xlink="http://www.w3.org/1999/xlink">
    <title>侧边栏/icon/护眼模式-开启</title>
    <g id="Icon" stroke="none" stroke-width="1" fill="none" fill-rule="evenodd">
        <g id="Icon-Sets" transform="translate(-103.000000, -1106.000000)">
            <g id="编组" transform="translate(103.000000, 1106.000000)">
                <path d="M3,4 L7.625,4 L12,2 L16.375,4 L21,4 L21,10.8850175 C21,13.6287119 20.8177423,14.6186268 20.4326424,15.6782608 C20.0475426,16.7378948 19.4596006,17.6432728 18.6482321,18.4260929 C17.8368636,19.208913 17.0066776,19.7780708 14.5002181,20.8940995 L12.0165055,22 L12.0165055,22 L9.5117575,20.8888165 C7.00142278,19.7751546 6.16973916,19.206264 5.35683085,18.4233749 C4.54392254,17.6404857 3.95471483,16.7345092 3.56873419,15.6739649 C3.18275356,14.6134206 3,13.6224941 3,10.8762196 L3,4 L3,4 Z" id="矩形" stroke="#FFFFFF" stroke-width="2" stroke-linejoin="round"></path>
                <path d="M12,16 C14.209139,16 16.209139,14.6666667 18,12 C16.209139,9.33333333 14.209139,8 12,8 C9.790861,8 7.790861,9.33333333 6,12 C7.790861,14.6666667 9.790861,16 12,16 Z" id="椭圆形" stroke="#FFFFFF" stroke-width="2" stroke-linejoin="round"></path>
                <circle id="椭圆形" fill="#FFFFFF" cx="12" cy="12" r="2"></circle>
            </g>
        </g>
    </g>
</svg>