<?xml version="1.0" encoding="UTF-8"?>
<svg width="24px" height="24px" viewBox="0 0 24 24" version="1.1" xmlns="http://www.w3.org/2000/svg" xmlns:xlink="http://www.w3.org/1999/xlink">
    <title>侧边栏/icon/bluetooth</title>
    <g id="Icon" stroke="none" stroke-width="1" fill="none" fill-rule="evenodd">
        <g id="Icon-Sets" transform="translate(-239.000000, -1026.000000)" fill="#A8A8A8" fill-rule="nonzero">
            <g id="形状" transform="translate(239.000000, 1026.000000)">
                <path d="M11.2056943,1.11509337 L11.3020242,1.17293419 L19.0595999,6.41102943 C19.6277171,6.7946353 19.6428577,7.61044097 19.1243103,8.02135379 L19.0208333,8.09345073 L12.386,12.1406971 L19.0389826,16.3974754 C19.6239511,16.7717856 19.6508187,17.6006396 19.1276748,18.0186807 L19.0231418,18.0920379 L11.2655661,22.8539427 C10.63258,23.2424944 9.82763197,22.8292371 9.74871963,22.1166286 L9.74242424,22.0016971 L9.742,13.7536971 L3.77339236,17.3960989 C3.53767585,17.5399472 3.22997776,17.4654733 3.08612943,17.2297568 C3.03904898,17.1526086 3.01375985,17.0641419 3.0129519,16.9737662 L3.00507002,16.0921195 C3.00192528,15.740357 3.18383844,15.4128136 3.4841187,15.2295692 L8.613,12.0996971 L8.613,12.0996971 L3.47013785,8.80883605 C3.17793002,8.62185547 3.00350569,8.29678951 3.00926294,7.94992642 L3.02411555,7.05508703 C3.02869835,6.77898269 3.25624024,6.55887099 3.53234458,6.56345378 C3.62503102,6.5649922 3.71546502,6.59226693 3.79354616,6.6422317 L9.742,10.4486971 L9.742,10.4486971 L9.74242424,2.00169707 C9.74242424,1.23848727 10.5546274,0.770543625 11.2056943,1.11509337 Z M11.742,14.1026971 L11.742,20.2136971 L16.616,17.2216971 L11.742,14.1026971 Z M11.742,3.88269707 L11.742,10.1906971 L16.65,7.19669707 L11.742,3.88269707 Z"></path>
            </g>
        </g>
    </g>
</svg>