<?xml version="1.0" encoding="UTF-8"?>
<svg width="24px" height="24px" viewBox="0 0 24 24" version="1.1" xmlns="http://www.w3.org/2000/svg" xmlns:xlink="http://www.w3.org/1999/xlink">
    <title>侧边栏/icon/Wifi-开启</title>
    <g id="Icon" stroke="none" stroke-width="1" fill="none" fill-rule="evenodd">
        <g id="Icon-Sets" transform="translate(-47.000000, -1026.000000)">
            <g id="侧边栏/icon/Wifi-开启" transform="translate(47.000000, 1026.000000)">
                <polygon id="矩形" fill="#000000" opacity="0" points="0 0 24 0 24 24 0 24"></polygon>
                <path d="M4.97428728,13.2106259 C5.07395961,13.2080201 5.15957559,13.1676314 5.23113522,13.0894595 C6.12563054,12.1253402 7.14918875,11.3931306 8.30180987,10.8928308 C9.45443098,10.3925311 10.6901124,10.1423812 12.008854,10.1423812 C13.3327071,10.1423812 14.5722221,10.3938339 15.7273989,10.8967394 C16.8825757,11.3996449 17.9074117,12.1357631 18.8019071,13.1050939 C18.8734667,13.1728428 18.9578048,13.2067173 19.0549215,13.2067173 C19.1520381,13.2067173 19.2363762,13.1650256 19.3079358,13.0816423 L20.3199934,12.0575912 C20.3864416,11.9846309 20.4209436,11.9077619 20.423666,11.8269843 C20.426055,11.7462068 20.3992201,11.6693378 20.3429947,11.5963774 C19.7654063,10.871985 19.0408651,10.2283702 18.1693711,9.66553297 C17.2978771,9.10269572 16.3331,8.65972197 15.2750398,8.3366117 C14.2169796,8.01350143 13.128251,7.8519463 12.008854,7.8519463 C10.8843456,7.8519463 9.7943392,8.01350143 8.73883472,8.3366117 C7.68333025,8.65972197 6.719831,9.10269572 5.84833699,9.66553297 C4.97684298,10.2283702 4.25230177,10.871985 3.67471336,11.5963774 C3.62359935,11.6693378 3.59932019,11.7462068 3.60187589,11.8269843 C3.60443159,11.9077619 3.63893355,11.9846309 3.70538178,12.0575912 L4.71743934,13.1050939 C4.78899896,13.1780543 4.87461494,13.2132316 4.97428728,13.2106259 Z" id="路径" fill="#2FB3E8"></path>
                <path d="M16.0225823,16.3023221 C16.1171433,16.3023221 16.2053149,16.2606305 16.2870974,16.1772472 L17.4141615,15.0437555 C17.4806097,14.981218 17.5163895,14.9082577 17.5215009,14.8248744 C17.5266123,14.7414911 17.5010553,14.6633192 17.4448299,14.5903588 C17.0716975,14.1317507 16.6052821,13.7226514 16.0455836,13.363061 C15.4858851,13.0034705 14.8622941,12.7194462 14.1748106,12.5109879 C13.487327,12.3025297 12.7653415,12.1983006 12.008854,12.1983006 C11.2523666,12.1983006 10.5316589,12.3025297 9.84673107,12.5109879 C9.16180322,12.7194462 8.5382122,13.0034705 7.975958,13.363061 C7.4137038,13.7226514 6.94601053,14.1317507 6.5728782,14.5903588 C6.51665278,14.6633192 6.49109577,14.7388853 6.49620717,14.8170572 C6.50131857,14.895229 6.53709839,14.9707951 6.60354661,15.0437555 L7.73061071,16.1850644 C7.81750454,16.2684477 7.90950978,16.3062307 8.00662641,16.2984135 C8.10374305,16.2905963 8.19063688,16.2449961 8.2673079,16.1616128 C8.70688846,15.6665245 9.26019771,15.2600309 9.92723565,14.9421321 C10.5942736,14.6242333 11.2881464,14.4678896 12.008854,14.4731011 C12.7397845,14.4678896 13.4387687,14.6281419 14.1058066,14.9538579 C14.7728446,15.2795739 15.3287095,15.6873703 15.7734015,16.1772472 C15.8449611,16.2606305 15.9280214,16.3023221 16.0225823,16.3023221 Z" id="路径" fill="#2FB3E8"></path>
                <path d="M12.008854,20.25 C12.0957479,20.25 12.1826417,20.2252456 12.2695355,20.1757368 C12.3564294,20.1262279 12.4714359,20.0311189 12.6145552,19.8904095 L14.393323,18.1471775 C14.4546598,18.0846401 14.4904396,18.0116797 14.5006624,17.9282964 C14.5108852,17.8449131 14.4878839,17.769347 14.4316585,17.701598 C14.1811998,17.3836992 13.8425694,17.1087949 13.4157674,16.8768851 C12.9889653,16.6449753 12.5199942,16.5290205 12.008854,16.5290205 C11.4874911,16.5290205 11.0108528,16.6488839 10.5789394,16.8886109 C10.1470259,17.1283379 9.80839555,17.414968 9.56304827,17.7485011 C9.52215705,17.8110386 9.50937855,17.8787875 9.52471275,17.9517479 C9.54004696,18.0247083 9.57838247,18.0898515 9.63971929,18.1471775 L11.41082,19.8904095 C11.5539393,20.0259074 11.6689458,20.1197136 11.7558396,20.1718282 C11.8427335,20.2239427 11.9270716,20.25 12.008854,20.25 Z" id="路径" fill="#2FB3E8"></path>
                <path d="M12.0126797,3.75 C13.5481259,3.75 15.0415051,3.97160076 16.4928173,4.41480227 C17.9441294,4.85800378 19.2674878,5.46561875 20.4628923,6.23764719 C21.5088712,6.91317208 22.4005222,7.6735285 23.1378453,8.51871646 C23.3020419,8.71561108 23.2857458,9.00602325 23.1005524,9.18331233 L21.9802231,10.2558245 C21.8191805,10.4099936 21.5636509,10.4044215 21.4094818,10.2433789 C21.4070683,10.2408578 21.4046875,10.2383054 21.4023402,10.2357225 L21.4023402,10.2357225 L21.4023402,10.2357225 L21.325277,10.1571857 C20.0983223,8.82758121 18.6925827,7.81786809 17.1080583,7.12804639 C15.5235339,6.43822468 13.8233252,6.09331383 12.0074322,6.09331383 C10.1985503,6.09331383 8.50359997,6.43643758 6.92258114,7.12268508 C5.34156232,7.80893258 3.93757553,8.81328439 2.71062079,10.1357405 C2.53548842,10.3533692 2.2170927,10.3878192 1.99946403,10.2126869 C1.98807648,10.203523 1.97709151,10.1938697 1.96654006,10.1837544 L0.881001009,9.14307913 C0.717583513,8.9863985 0.705499557,8.7291758 0.853517732,8.55787281 C0.853517732,8.55787281 0.853517732,8.55787281 0.853517732,8.55787281 C1.49272509,7.81811138 2.24943219,7.14293766 3.12363902,6.53235162 L3.56246705,6.23764719 C4.75787153,5.46561875 6.07947707,4.85800378 7.52728367,4.41480227 C8.97509027,3.97160076 10.4702223,3.75 12.0126797,3.75 Z" id="路径" fill="#2FB3E8"></path>
            </g>
        </g>
    </g>
</svg>