<?xml version="1.0" encoding="UTF-8"?>
<svg width="25px" height="25px" viewBox="0 0 25 25" version="1.1" xmlns="http://www.w3.org/2000/svg" xmlns:xlink="http://www.w3.org/1999/xlink">
    <title>侧边栏/icon/平板模式-开启</title>
    <g id="Icon" stroke="none" stroke-width="1" fill="none" fill-rule="evenodd">
        <g id="Icon-Sets" transform="translate(-47.000000, -1146.000000)">
            <g id="侧边栏/icon/平板模式备份" transform="translate(47.000000, 1146.000000)">
                <rect id="矩形" fill="#D8D8D8" opacity="0" x="0" y="0" width="24" height="24" rx="1"></rect>
                <path d="M19.4361148,3 C20.3998961,3 20.9133638,3.09915518 21.4484446,3.38531951 C21.948639,3.6528264 22.3471736,4.05136104 22.6146805,4.55155544 C22.8769978,5.04204614 22.9821755,5.51437583 22.9978834,6.3320483 L23,6.5638852 L23,11 C23,11.5522847 22.5522847,12 22,12 C21.4871642,12 21.0644928,11.6139598 21.0067277,11.1166211 L21,11 L20.9990108,6.39444355 L20.9906622,6.11565933 C20.9885146,6.07517503 20.9859728,6.03744797 20.9830126,6.00212917 L20.9600376,5.81632374 C20.9363856,5.68091561 20.9010651,5.58826569 20.8510541,5.49475316 C20.7699468,5.3430957 20.6569043,5.2300532 20.5052468,5.1489459 C20.4117343,5.09893485 20.3190844,5.06361445 20.1836763,5.03996242 L19.9978708,5.01698737 C19.962552,5.01402719 19.924825,5.01148539 19.8843407,5.00933779 L19.6055565,5.00098918 L4.39444355,5.00098918 L4.08907445,5.01082819 C3.78359374,5.0289037 3.64021709,5.07115094 3.49475316,5.1489459 C3.3430957,5.2300532 3.2300532,5.3430957 3.1489459,5.49475316 C3.09893485,5.58826569 3.06361445,5.68091561 3.03996242,5.81632374 L3.01698737,6.00212917 C3.01402719,6.03744797 3.01148539,6.07517503 3.00933779,6.11565933 L3.00098918,6.39444355 L3.00098918,15.6055565 L3.01082819,15.9109256 C3.0289037,16.2164063 3.07115094,16.3597829 3.1489459,16.5052468 C3.2300532,16.6569043 3.3430957,16.7699468 3.49475316,16.8510541 C3.58826569,16.9010651 3.68091561,16.9363856 3.81632374,16.9600376 L4.00212917,16.9830126 C4.03744797,16.9859728 4.07517503,16.9885146 4.11565933,16.9906622 L4.39444355,16.9990108 L8.4361148,17 C8.98839955,17 9.4361148,17.4477153 9.4361148,18 C9.4361148,18.5128358 9.05007461,18.9355072 8.55273593,18.9932723 L8.4361148,19 L4.5638852,19 C3.60010387,19 3.08663621,18.9008448 2.55155544,18.6146805 C2.05136104,18.3471736 1.6528264,17.948639 1.38531951,17.4484446 C1.12300221,16.9579539 1.01782454,16.4856242 1.00211657,15.6679517 L1,15.4361148 L1,6.5638852 C1,5.60010387 1.09915518,5.08663621 1.38531951,4.55155544 C1.6528264,4.05136104 2.05136104,3.6528264 2.55155544,3.38531951 C3.04204614,3.12300221 3.51437583,3.01782454 4.3320483,3.00211657 L4.5638852,3 L19.4361148,3 Z" id="路径" fill="#FFFFFF" fill-rule="nonzero"></path>
                <text id="􀝱" font-family="SFCompact-Regular, SF Compact" font-size="16" font-weight="normal" fill="#FFFFFF">
                    <tspan x="9" y="21">􀝱</tspan>
                </text>
            </g>
        </g>
    </g>
</svg>