<?xml version="1.0" encoding="UTF-8"?>
<svg width="24px" height="24px" viewBox="0 0 24 24" version="1.1" xmlns="http://www.w3.org/2000/svg" xmlns:xlink="http://www.w3.org/1999/xlink">
    <title>侧边栏/icon/亮度-激活</title>
    <g id="Icon" stroke="none" stroke-width="1" fill="none" fill-rule="evenodd">
        <g id="Icon-Sets" transform="translate(-319.000000, -1026.000000)">
            <g id="icon-亮度" transform="translate(319.000000, 1026.000000)">
                <rect id="矩形" fill="#000000" fill-rule="nonzero" opacity="0" x="0" y="0" width="24" height="24"></rect>
                <path d="M12.0014768,5 C13.9308518,5 15.6803315,5.78540478 16.9475755,7.05288277 C18.2146911,8.32023233 19,10.0698967 19,12 C19,13.9304384 18.2151453,15.6804212 16.9479559,16.9478446 C15.6810733,18.2149611 13.9318089,19 12.0014768,19 C10.070816,19 8.32063957,18.2147292 7.05298946,16.947313 C5.78540622,15.6799637 5,13.9302115 5,12 C5,10.0697885 5.78540622,8.32003627 7.05298946,7.05268699 C8.32063957,5.78527085 10.070816,5 12.0014768,5 Z" id="路径" stroke="#2FB3E8" stroke-width="2" fill-rule="nonzero"></path>
                <path d="M12,21 C12.5522847,21 13,21.4477153 13,22 C13,22.5522847 12.5522847,23 12,23 C11.4477153,23 11,22.5522847 11,22 C11,21.4477153 11.4477153,21 12,21 Z M18.363961,18.363961 C18.7544853,17.9734367 19.3876503,17.9734367 19.7781746,18.363961 C20.1686989,18.7544853 20.1686989,19.3876503 19.7781746,19.7781746 C19.3876503,20.1686989 18.7544853,20.1686989 18.363961,19.7781746 C17.9734367,19.3876503 17.9734367,18.7544853 18.363961,18.363961 Z M4.22182541,18.363961 C4.6123497,17.9734367 5.24551468,17.9734367 5.63603897,18.363961 C6.02656326,18.7544853 6.02656326,19.3876503 5.63603897,19.7781746 C5.24551468,20.1686989 4.6123497,20.1686989 4.22182541,19.7781746 C3.83130112,19.3876503 3.83130112,18.7544853 4.22182541,18.363961 Z M22,11 C22.5522847,11 23,11.4477153 23,12 C23,12.5522847 22.5522847,13 22,13 C21.4477153,13 21,12.5522847 21,12 C21,11.4477153 21.4477153,11 22,11 Z M2,11 C2.55228475,11 3,11.4477153 3,12 C3,12.5522847 2.55228475,13 2,13 C1.44771525,13 1,12.5522847 1,12 C1,11.4477153 1.44771525,11 2,11 Z M18.363961,4.22182541 C18.7544853,3.83130112 19.3876503,3.83130112 19.7781746,4.22182541 C20.1686989,4.6123497 20.1686989,5.24551468 19.7781746,5.63603897 C19.3876503,6.02656326 18.7544853,6.02656326 18.363961,5.63603897 C17.9734367,5.24551468 17.9734367,4.6123497 18.363961,4.22182541 Z M4.22182541,4.22182541 C4.6123497,3.83130112 5.24551468,3.83130112 5.63603897,4.22182541 C6.02656326,4.6123497 6.02656326,5.24551468 5.63603897,5.63603897 C5.24551468,6.02656326 4.6123497,6.02656326 4.22182541,5.63603897 C3.83130112,5.24551468 3.83130112,4.6123497 4.22182541,4.22182541 Z M12,1 C12.5522847,1 13,1.44771525 13,2 C13,2.55228475 12.5522847,3 12,3 C11.4477153,3 11,2.55228475 11,2 C11,1.44771525 11.4477153,1 12,1 Z" id="形状结合" fill="#2FB3E8"></path>
                <path d="M12,12.03569 C12,8.92318496 14.0972656,6 18,6 C18,6.61882145 18,17.5810757 18,18 C14.0972656,18 12,15.3262342 12,12.03569 Z" id="路径" fill="#2FB3E8" transform="translate(15.000000, 12.000000) scale(-1, 1) translate(-15.000000, -12.000000) "></path>
            </g>
        </g>
    </g>
</svg>