<?xml version="1.0" encoding="utf-8"?>
<!-- Generator: Adobe Illustrator 24.1.2, SVG Export Plug-In . SVG Version: 6.00 Build 0)  -->
<svg version="1.1" id="图层_1" xmlns="http://www.w3.org/2000/svg" xmlns:xlink="http://www.w3.org/1999/xlink" x="0px" y="0px"
	 viewBox="0 0 24 24" enable-background="new 0 0 24 24" xml:space="preserve">
<path id="形状" opacity="0.8" fill="#FFFFFF" enable-background="new    " d="M22.8,18H6V1.2C6,0.5,5.5,0,4.8,0
	C4.1,0,3.6,0.5,3.6,1.2v2.4H1.2C0.5,3.6,0,4.1,0,4.8C0,5.5,0.5,6,1.2,6h2.4v13.2c0,0.7,0.5,1.2,1.2,1.2H18v2.4
	c0,0.7,0.5,1.2,1.2,1.2s1.2-0.5,1.2-1.2v-2.4h2.4c0.7,0,1.2-0.5,1.2-1.2S23.5,18,22.8,18z M8.4,6H18v9.6c0,0.7,0.5,1.2,1.2,1.2
	s1.2-0.5,1.2-1.2V4.8c0-0.7-0.5-1.2-1.2-1.2H8.4c-0.4,0-0.8,0.2-1,0.6C7.1,4.6,7.1,5,7.4,5.4C7.6,5.8,8,6,8.4,6z"/>
</svg>
