<?xml version="1.0" encoding="utf-8"?>
<!-- Generator: Adobe Illustrator 24.1.2, SVG Export Plug-In . SVG Version: 6.00 Build 0)  -->
<svg version="1.1" id="图层_1" xmlns="http://www.w3.org/2000/svg" xmlns:xlink="http://www.w3.org/1999/xlink" x="0px" y="0px"
	 viewBox="0 0 30 31" enable-background="new 0 0 30 31" xml:space="preserve">
<g opacity="0.65">
	<path fill="#FFFFFF" d="M10,7h13v13c0,0.6,0.4,1,1,1s1-0.4,1-1V7c0-1.1-0.9-2-2-2H10C9.4,5,9,5.5,9,6S9.4,7,10,7z"/>
	<path fill="#FFFFFF" d="M29,23H7V1c0-0.6-0.4-1-1-1S5,0.4,5,1v4H1C0.4,5,0,5.4,0,6s0.4,1,1,1h4v16c0,1.1,0.9,2,2,2h16v5
		c0,0.6,0.4,1,1,1s1-0.4,1-1v-5h4c0.6,0,1-0.4,1-1S29.6,23,29,23z"/>
</g>
</svg>
