<?xml version="1.0" encoding="utf-8"?>
<!-- Generator: Adobe Illustrator 24.1.2, SVG Export Plug-In . SVG Version: 6.00 Build 0)  -->
<svg version="1.1" id="图层_1" xmlns="http://www.w3.org/2000/svg" xmlns:xlink="http://www.w3.org/1999/xlink" x="0px" y="0px"
	 viewBox="0 0 24 24" enable-background="new 0 0 24 24" xml:space="preserve">
<g opacity="0.8">
	<path fill="#FFFFFF" d="M22,10.1c-0.3-1.5-0.7-2.7-1.6-3.9L22,4.8l-2.7-2.7l-1.7,1.6c-1.1-0.7-2.4-1.3-3.9-1.6V0h-3.6v2
		C8.7,2.4,7.5,2.8,6.3,3.7L4.8,2.1L2.1,4.8l1.6,1.6c-0.7,1.1-1.3,2.4-1.6,3.9H0V14h2c0.3,1.5,0.7,2.7,1.6,3.9L2,19.3L4.7,22l1.7-1.6
		c1.1,0.7,2.4,1.3,3.9,1.6v2H14v-2c1.5-0.3,2.7-0.7,3.9-1.6l1.5,1.6l2.7-2.7l-1.6-1.7c0.7-1.1,1.3-2.4,1.6-3.9h2v-3.6H22z M12,20
		c-4.4,0-8-3.6-8-8s3.6-8,8-8s8,3.6,8,8S16.4,20,12,20z"/>
	<path fill="#FFFFFF" d="M12,8c2.2,0,4,1.8,4,4s-1.8,4-4,4s-4-1.8-4-4S9.8,8,12,8 M12,6.5C9,6.5,6.5,9,6.5,12S9,17.5,12,17.5
		s5.5-2.5,5.5-5.5S15,6.5,12,6.5L12,6.5z"/>
</g>
</svg>
