<?xml version="1.0" encoding="utf-8"?>
<!-- Generator: Adobe Illustrator 24.1.2, SVG Export Plug-In . SVG Version: 6.00 Build 0)  -->
<svg version="1.1" id="图层_1" xmlns="http://www.w3.org/2000/svg" xmlns:xlink="http://www.w3.org/1999/xlink" x="0px" y="0px"
	 viewBox="0 0 30 30" enable-background="new 0 0 30 30" xml:space="preserve">
<g opacity="0.8">
	<path fill="#FFFFFF" d="M27.5,12.7c-0.3-1.8-0.8-3.3-2-4.8l2-1.8l-3.3-3.3l-2.2,2c-1.3-0.8-3-1.7-4.8-2V0h-4.5v2.5
		c-1.8,0.5-3.3,1-4.8,2.2L6,2.7L2.7,6l2,2c-0.8,1.3-1.7,3-2,4.8H0v4.7h2.5c0.3,1.8,0.8,3.3,2,4.8l-2,1.8l3.3,3.3l2.2-2
		c1.3,0.8,3,1.7,4.8,2V30h4.7v-2.5c1.8-0.3,3.3-0.8,4.8-2l1.8,2l3.3-3.3l-2-2.2c0.8-1.3,1.7-3,2-4.8H30v-4.5H27.5z M15,25
		C9.5,25,5,20.5,5,15S9.5,5,15,5s10,4.5,10,10S20.5,25,15,25z"/>
	<path fill="#FFFFFF" d="M15,10c2.8,0,5,2.2,5,5c0,2.8-2.2,5-5,5c-2.8,0-5-2.2-5-5C10,12.2,12.2,10,15,10 M15,8.5
		c-3.6,0-6.5,2.9-6.5,6.5s2.9,6.5,6.5,6.5s6.5-2.9,6.5-6.5S18.6,8.5,15,8.5L15,8.5z"/>
</g>
</svg>
