<?xml version="1.0" encoding="UTF-8"?>
<svg width="24px" height="24px" viewBox="0 0 24 24" version="1.1" xmlns="http://www.w3.org/2000/svg" xmlns:xlink="http://www.w3.org/1999/xlink">
    <title>侧边栏/icon/音量-激活</title>
    <g id="Icon" stroke="none" stroke-width="1" fill="none" fill-rule="evenodd">
        <g id="Icon-Sets" transform="translate(-319.000000, -799.000000)">
            <g id="icon-音量" transform="translate(319.000000, 799.000000)">
                <rect id="矩形" fill="#F6F6F6" opacity="0" x="0" y="0" width="24" height="24" rx="8"></rect>
                <path d="M5.66846304,7.98694523 L9.88415901,4.10449699 C10.29041,3.73035986 10.9230395,3.75639328 11.2971767,4.16264425 C11.4672084,4.34727056 11.5615942,4.5890861 11.5615942,4.84007945 L11.5615942,19.5690993 C11.5615942,20.121384 11.113879,20.5690993 10.5615942,20.5690993 C10.3106009,20.5690993 10.0687853,20.4747135 9.88415901,20.3046818 L5.66846304,16.4222335 C5.48383674,16.2522018 5.24202119,16.157816 4.99102785,16.157816 L2.91666667,16.157816 C2.36438192,16.157816 1.91666667,15.7101007 1.91666667,15.157816 L1.91666667,9.25136277 C1.91666667,8.69907802 2.36438192,8.25136277 2.91666667,8.25136277 L4.99102785,8.25136277 C5.24202119,8.25136277 5.48383674,8.15697696 5.66846304,7.98694523 Z" id="矩形" fill="#2FB3E8"></path>
                <path d="M13.5076288,7.07767713 C16.3391443,7.07767713 18.6345411,9.37307393 18.6345411,12.2045894 C18.6345411,14.9731822 16.4400284,17.2292192 13.695583,17.3281203 L13.5076288,17.3315016 L13.5076288,15.6509461 C15.4109991,15.6509461 16.9539855,14.1079596 16.9539855,12.2045894 C16.9539855,10.358897 15.5030965,8.85207795 13.6796368,8.76245043 L13.5076288,8.75823269 L13.5076288,7.07767713 Z" id="路径" fill="#2FB3E8" fill-rule="nonzero"></path>
                <path d="M13.5076288,10.292653 C14.5635621,10.292653 15.4195652,11.1486561 15.4195652,12.2045894 C15.4195652,13.2165255 14.6334096,14.0448451 13.6385317,14.1121149 L13.5076288,14.1165258 L13.5076288,10.292653 Z" id="路径备份-3" fill="#2FB3E8" fill-rule="nonzero"></path>
                <path d="M13.5076288,3.86270129 C18.1147264,3.86270129 21.8495169,7.5974918 21.8495169,12.2045894 C21.8495169,16.7336005 18.2402566,20.4196238 13.7411223,20.5432727 L13.5076288,20.5464775 L13.5076288,18.8659219 C17.1865812,18.8659219 20.1689614,15.8835417 20.1689614,12.2045894 C20.1689614,8.5950512 17.2980621,5.65604747 13.7151121,5.54642666 L13.5076288,5.54325684 L13.5076288,3.86270129 Z" id="路径备份-2" fill="#2FB3E8" fill-rule="nonzero"></path>
            </g>
        </g>
    </g>
</svg>