<?xml version="1.0" encoding="utf-8"?>
<!-- Generator: Adobe Illustrator 24.1.2, SVG Export Plug-In . SVG Version: 6.00 Build 0)  -->
<svg version="1.1" id="图层_1" xmlns="http://www.w3.org/2000/svg" xmlns:xlink="http://www.w3.org/1999/xlink" x="0px" y="0px"
	 viewBox="0 0 32 23" enable-background="new 0 0 32 23" xml:space="preserve">
<path opacity="0.65" fill="#FFFFFF" enable-background="new    " d="M12.1,19.1c1.1-0.9,2.5-1.4,3.9-1.4c1.5,0,2.8,0.5,3.9,1.4
	L16,23L12.1,19.1z M6.5,13.2c2.7-2.5,6.2-3.9,10-3.9c3.7,0,7.2,1.4,10,3.9l-2.3,2.3c-2.1-1.9-4.8-3-7.6-3c-2.8,0-5.5,1-7.6,3
	L6.5,13.2z M0,6.6C4.3,2.3,10,0,16,0c6,0,11.7,2.3,16,6.6L29.7,9C26,5.4,21.1,3.4,16,3.4c-5.1,0-10,2-13.7,5.6L0,6.6z"/>
</svg>
