<?xml version="1.0" encoding="utf-8"?>
<!-- Generator: Adobe Illustrator 24.0.0, SVG Export Plug-In . SVG Version: 6.00 Build 0)  -->
<svg version="1.1" id="图层_1" xmlns="http://www.w3.org/2000/svg" xmlns:xlink="http://www.w3.org/1999/xlink" x="0px" y="0px"
	 viewBox="0 0 16 16" style="enable-background:new 0 0 16 16;" xml:space="preserve">
<style type="text/css">
	.st0{opacity:0.5;fill:#FFFFFF;}
</style>
<polygon class="st0" points="12,5 8,0 4,5 7,5 7,9 9,9 9,5 "/>
<path class="st0" d="M12,1h-1v1h0.6l3.2,5H11v1.5c0,0.8-0.7,1.5-1.5,1.5h-3C5.7,10,5,9.3,5,8.5V7H1.2l3.2-5H5V1H4L0,7v5
	c0,1.7,1.3,3,3,3h10c1.7,0,3-1.3,3-3V7L12,1z"/>
</svg>
