<?xml version="1.0" encoding="utf-8"?>
<!-- Generator: Adobe Illustrator 23.0.1, SVG Export Plug-In . SVG Version: 6.00 Build 0)  -->
<svg version="1.1" id="图层_1" xmlns="http://www.w3.org/2000/svg" xmlns:xlink="http://www.w3.org/1999/xlink" x="0px" y="0px"
	 viewBox="0 0 24 24" style="enable-background:new 0 0 24 24;" xml:space="preserve">
<style type="text/css">
	.st0{fill:#FFFFFF;}
</style>
<polygon class="st0" points="16,5 12,0 8,5 11,5 11,9 13,9 13,5 "/>
<path class="st0" d="M18,1h-2v1h1.4l5.5,10H15v2c0,0.6-0.4,1-1,1h-4c-0.6,0-1-0.4-1-1v-2H1.1L6.6,2H8V1H6L0,12v9c0,1.1,0.9,2,2,2h20
	c1.1,0,2-0.9,2-2v-9L18,1z"/>
</svg>
