<svg xmlns="http://www.w3.org/2000/svg" viewBox="0 0 30 30"><defs><style>.cls-1{fill:#3d6be5;}.cls-2{fill:#fff;}</style></defs><title>画板 109 副本 9</title><g id="悬停状态"><g id="还原"><rect id="底图" class="cls-1" width="30" height="30" rx="4"/><path class="cls-2" d="M19,8H13a2,2,0,0,0-2,2v1H10a2,2,0,0,0-2,2v6a2,2,0,0,0,2,2h6a2,2,0,0,0,2-2V18h1a2,2,0,0,0,2-2V10A2,2,0,0,0,19,8ZM17,19a1,1,0,0,1-1,1H10a1,1,0,0,1-1-1V13a1,1,0,0,1,1-1h6a1,1,0,0,1,1,1Zm3-3a1,1,0,0,1-1,1H18V13a2,2,0,0,0-2-2H12V10a1,1,0,0,1,1-1h6a1,1,0,0,1,1,1Z"/></g></g></svg>