<?xml version="1.0" encoding="utf-8"?>
<!-- Generator: Adobe Illustrator 24.0.0, SVG Export Plug-In . SVG Version: 6.00 Build 0)  -->
<svg version="1.1" id="svg7384" xmlns="http://www.w3.org/2000/svg" xmlns:xlink="http://www.w3.org/1999/xlink" x="0px" y="0px"
	 viewBox="0 0 16 16" style="enable-background:new 0 0 16 16;" xml:space="preserve">
<style type="text/css">
	.st0{fill:#FFFFFF;}
</style>
<g>
	<rect x="12" y="9" class="st0" width="3" height="1"/>
	<rect x="10" y="11" class="st0" width="5" height="1"/>
	<rect x="8" y="13" class="st0" width="7" height="1"/>
	<path class="st0" d="M13.6,2.4c-0.8-0.8-2-0.7-2.7,0l-7.9,8.1c-0.1,0.1-0.3,0.4-0.6,1.1c-0.3,0.6-0.7,1.5-1,2.5L1,15l0.9-0.3
		c0.9-0.3,1.7-0.6,2.5-1c0.6-0.3,1-0.5,1.1-0.6l8.1-7.9C14.4,4.4,14.4,3.2,13.6,2.4L13.6,2.4z M4.8,12.2C4.8,12.2,4.8,12.2,4.8,12.2
		l-1.1-1.1c0,0,0,0,0,0L11.6,3c0.3-0.3,0.8-0.3,1.2,0l0,0c0.4,0.4,0.4,1,0,1.4L4.8,12.2z"/>
</g>
</svg>
