<?xml version="1.0" encoding="utf-8"?>
<!-- Generator: Adobe Illustrator 24.0.0, SVG Export Plug-In . SVG Version: 6.00 Build 0)  -->
<svg version="1.1" id="图层_1" xmlns="http://www.w3.org/2000/svg" xmlns:xlink="http://www.w3.org/1999/xlink" x="0px" y="0px"
	 viewBox="0 0 16 16" style="enable-background:new 0 0 16 16;" xml:space="preserve">
<style type="text/css">
	.st0{fill:#FFFFFF;}
</style>
<g>
	<path class="st0" d="M6,5L6,5c0.6,0,1,0.4,1,1v5c0,0.6-0.4,1-1,1l0,0c-0.6,0-1-0.4-1-1V6C5,5.4,5.4,5,6,5z"/>
	<path class="st0" d="M10,5L10,5c0.6,0,1,0.4,1,1v5c0,0.6-0.4,1-1,1l0,0c-0.6,0-1-0.4-1-1V6C9,5.4,9.4,5,10,5z"/>
	<path class="st0" d="M16,2h-5V1c0-0.6-0.4-1-1-1H6C5.4,0,5,0.4,5,1v1H0v1h2v10c0,1.1,0.9,2,2,2h8c1.1,0,2-0.9,2-2V3h2V2z M6,1h4v1
		H6V1z M12,14H4c-0.6,0-1-0.4-1-1V3h10v10C13,13.6,12.6,14,12,14z"/>
</g>
</svg>
