<?xml version="1.0" encoding="utf-8"?>
<!-- Generator: Adobe Illustrator 24.0.0, SVG Export Plug-In . SVG Version: 6.00 Build 0)  -->
<svg version="1.1" id="文档" xmlns="http://www.w3.org/2000/svg" xmlns:xlink="http://www.w3.org/1999/xlink" x="0px" y="0px"
	 viewBox="0 0 16 16" style="enable-background:new 0 0 16 16;" xml:space="preserve">
<style type="text/css">
	.st0{fill:#FFFFFF;}
</style>
<g>
	<path class="st0" d="M12,2L12,2c0-1.1-0.9-2-2-2L3,0C1.9,0,1,0.9,1,2v10c0,1.1,0.9,2,2,2h1v0c0,1.1,0.9,2,2,2h4.7l4.3-4.3V4
		c0-1.1-0.9-2-2-2H12z M2,12V2c0-0.6,0.4-1,1-1h7c0.6,0,1,0.4,1,1H6C4.9,2,4,2.9,4,4v9H3C2.4,13,2,12.6,2,12z M5,14V4
		c0-0.6,0.4-1,1-1h7c0.6,0,1,0.4,1,1v7h-4v4H6C5.4,15,5,14.6,5,14z M13.3,12L11,14.3V12H13.3z"/>
	<rect x="6" y="5" class="st0" width="7" height="1"/>
	<rect x="6" y="7" class="st0" width="7" height="1"/>
	<rect x="6" y="9" class="st0" width="3" height="1"/>
</g>
</svg>
